<svg width="128" height="129" viewBox="0 0 128 129" fill="none" xmlns="http://www.w3.org/2000/svg">
<path fill-rule="evenodd" clip-rule="evenodd" d="M84.1706 21.784C79.8501 21.539 75.5296 21.2765 71.2091 20.9965C69.7007 17.1988 68.155 13.4537 66.5162 9.72612C65.5292 8.69359 64.2815 8.30858 62.7916 8.58859C62.3261 8.9211 61.8791 9.28861 61.4694 9.72612C59.8492 13.4537 58.2849 17.2163 56.7765 20.9965C52.456 21.294 48.1355 21.5565 43.815 21.784C41.8038 22.6065 41.2078 23.989 42.0086 25.9491C45.3049 28.6792 48.657 31.3043 52.0835 33.8593C51.3386 37.4994 50.3703 41.1045 49.197 44.6921C49.048 45.4447 49.048 46.1972 49.197 46.9497C50.184 48.5073 51.5807 48.9973 53.4058 48.4198C56.9068 46.2322 60.4079 44.0796 63.9649 41.9971C67.3728 44.0096 70.7436 46.0747 74.0584 48.2098C74.8033 48.6473 75.6041 48.7873 76.4608 48.6648C78.0251 48.2798 78.8259 47.3347 78.8631 45.8297C77.8202 41.8396 76.8146 37.8494 75.8462 33.8768C79.2914 31.3218 82.6435 28.6967 85.9398 25.9666C86.7405 24.024 86.1446 22.624 84.1333 21.8015L84.1706 21.784ZM73.1273 30.7967C71.6375 31.6893 71.116 32.9143 71.563 34.5068C72.3451 37.3769 73.1831 40.247 74.0957 43.0821C74.0212 43.1521 73.9281 43.2396 73.8536 43.3096C71.1719 41.5596 68.4343 39.8795 65.6968 38.217C64.5794 37.7619 63.4621 37.7619 62.3447 38.217C59.5885 39.862 56.8696 41.5596 54.1879 43.3096C54.8025 40.4045 55.566 37.4644 56.4785 34.5068C56.9255 32.8968 56.404 31.6718 54.9142 30.7967C52.5119 28.9942 50.1095 27.1916 47.7072 25.3891C50.8358 25.2141 53.9458 25.0566 57.0744 24.9341C58.4525 25.0041 59.5327 24.5316 60.3148 23.464C61.5439 20.4714 62.6985 17.4788 63.7973 14.4338C64.0207 14.4338 64.1884 14.5388 64.2815 14.7838C65.4733 17.6539 66.6279 20.5589 67.7639 23.464C68.5647 24.5316 69.6262 25.0216 71.0043 24.9341C74.1329 25.0566 77.2429 25.2141 80.3715 25.3891C77.9692 27.1916 75.5669 28.9942 73.1645 30.7967H73.1273Z" fill="#44C5FF"/>
<path fill-rule="evenodd" clip-rule="evenodd" d="M38.3027 39.582C37.595 39.7395 36.8687 39.7395 36.1425 39.582C31.4681 37.0794 26.8683 34.4718 22.343 31.8118C21.9519 30.5517 22.3057 29.5717 23.4231 28.8717C24.4846 28.8017 25.4344 29.0817 26.3096 29.6592C30.3135 31.8293 34.3174 34.0343 38.3027 36.2044C39.5877 37.3244 39.5877 38.462 38.3027 39.582Z" fill="#44C5FF"/>
<path fill-rule="evenodd" clip-rule="evenodd" d="M105.773 30.7967C105.81 31.4268 105.55 31.9518 105.065 32.3718C100.633 34.7169 96.2195 37.1319 91.8618 39.582C89.5526 40.037 88.5283 39.1795 88.8635 36.9919C89.1429 36.7294 89.4222 36.4669 89.6829 36.2044C94.2269 33.7893 98.6964 31.3568 103.147 28.8542C104.749 28.6442 105.643 29.2742 105.773 30.7792V30.7967Z" fill="#44C5FF"/>
<path fill-rule="evenodd" clip-rule="evenodd" d="M34.8202 53.4599C34.5409 53.8099 34.1684 54.0899 33.7401 54.2474C28.3023 54.4049 22.8458 54.4049 17.4266 54.2474C16.0112 53.5824 15.6574 52.5674 16.3278 51.2023C16.6072 50.9573 16.8865 50.7123 17.1658 50.5373C22.7713 50.5023 28.3768 50.5373 33.9636 50.6423C35.1741 51.3248 35.4534 52.2524 34.8016 53.4599H34.8202Z" fill="#44C5FF"/>
<path fill-rule="evenodd" clip-rule="evenodd" d="M111.658 53.4599C111.36 53.8099 110.987 54.0899 110.559 54.2474C105.121 54.4049 99.6834 54.4049 94.2455 54.2474C92.4205 53.0749 92.3646 51.8324 94.022 50.5373C99.6089 50.5023 105.233 50.5373 110.82 50.6423C112.03 51.3248 112.31 52.2524 111.658 53.4599Z" fill="#44C5FF"/>
<path fill-rule="evenodd" clip-rule="evenodd" d="M98.1004 118.352C95.9216 104.596 87.8393 95.4611 73.8536 90.9285C79.2914 87.4109 82.1779 82.5107 82.4945 76.2631C81.2841 65.4128 74.8778 59.6376 63.2945 58.9026C55.5846 59.6201 50.1095 63.2952 46.8319 69.9454C44.0013 78.5906 46.4408 85.5908 54.1693 90.9285C47.5396 92.9061 41.9714 96.3537 37.4833 101.324C32.809 106.609 30.3508 112.717 30.0342 119.594C30.3135 119.857 30.5929 120.119 30.8722 120.382C52.9588 120.539 75.0454 120.539 97.132 120.382C97.9514 119.909 98.2494 119.244 98.1004 118.352ZM51.1524 82.1257C48.2473 74.9155 50.1282 69.1054 56.7951 64.6252C58.8622 63.5927 61.0225 62.9627 63.2758 62.7177C70.6318 62.9452 75.4551 66.3403 77.8016 72.868C79.1052 79.4482 76.7587 84.5408 70.7249 88.0934C62.3819 91.2435 55.864 89.266 51.1338 82.1257H51.1524ZM34.2243 116.654C38.0978 102.584 47.7072 94.8311 63.0337 93.4136C76.5352 93.7636 86.1818 99.6263 91.9735 111.002C92.6998 112.857 93.2958 114.729 93.7799 116.654C73.9281 116.952 54.0762 116.952 34.2429 116.654H34.2243Z" fill="#44C5FF"/>
<path fill-rule="evenodd" clip-rule="evenodd" d="M39.2711 66.9003C39.3083 67.5303 39.0476 68.0553 38.5634 68.4753C34.0753 70.8904 29.5872 73.3055 25.1178 75.6856C22.3802 75.9831 21.5794 74.9155 22.7154 72.5355C27.4084 70.0679 32.0454 67.5478 36.6453 64.9752C38.2468 64.7652 39.1407 65.3953 39.2711 66.9003Z" fill="#44C5FF"/>
<path fill-rule="evenodd" clip-rule="evenodd" d="M105.419 75.353C104.618 75.7906 103.799 75.9131 102.886 75.7031C98.417 73.3055 93.9289 70.8904 89.4408 68.4928C88.3793 67.1628 88.5469 65.9903 89.925 64.9927C91.1541 64.9927 92.2715 65.3428 93.2771 66.0253C97.2065 68.1603 101.117 70.2954 105.047 72.448C105.866 73.3405 105.978 74.3205 105.419 75.3705V75.353Z" fill="#44C5FF"/>
</svg>
