<svg width="128" height="129" viewBox="0 0 128 129" fill="none" xmlns="http://www.w3.org/2000/svg">
<path fill-rule="evenodd" clip-rule="evenodd" d="M71.0273 18.004C68.717 20.3494 66.3891 22.6422 64.0263 24.9001C61.6634 22.6422 59.3355 20.3494 57.0252 18.004C57.8653 17.1814 58.7054 16.3412 59.5281 15.5011C60.4207 16.3762 61.2783 17.2514 62.1535 18.1265C62.2585 14.906 62.311 11.703 62.2585 8.5H65.759C65.724 11.703 65.759 14.906 65.864 18.1265L68.4895 15.5011C69.3296 16.3412 70.1697 17.1814 71.0098 18.004H71.0273Z" fill="#44C5FF"/>
<path fill-rule="evenodd" clip-rule="evenodd" d="M52.1944 18.4591C51.1267 21.557 50.0241 24.655 48.9039 27.753C45.9109 26.7379 42.9355 25.7227 39.9425 24.69C39.8725 23.6399 40.1 22.6247 40.5901 21.6271C41.8328 21.6271 43.0405 21.9071 44.1957 22.5197C42.953 19.6317 41.6053 16.7263 40.1525 13.8733C40.1875 13.6983 40.2575 13.5583 40.3626 13.4358C41.1327 13.0857 41.8678 12.6832 42.5504 12.2456C42.8304 12.1931 43.093 12.2806 43.3205 12.4556C44.7032 15.2211 46.086 17.9865 47.4687 20.7694C48.0288 19.6667 48.4138 18.4941 48.6589 17.2689C49.884 17.5139 51.0567 17.9165 52.1594 18.4766L52.1944 18.4591Z" fill="#44C5FF"/>
<path fill-rule="evenodd" clip-rule="evenodd" d="M88.5301 24.6725C85.5371 25.7052 82.5441 26.7203 79.5512 27.7355C78.431 24.6375 77.3458 21.5395 76.2607 18.4416C77.3808 17.8815 78.5535 17.4789 79.7612 17.2339C80.0062 18.4591 80.4088 19.6317 80.9689 20.7344C82.3866 17.8815 83.8218 15.046 85.2396 12.2106C86.4298 12.4731 87.4449 13.0157 88.3025 13.8383C86.8323 16.7088 85.5021 19.5967 84.2594 22.4847C85.4146 21.8721 86.6048 21.592 87.865 21.592C88.355 22.5897 88.5826 23.6224 88.5126 24.655L88.5301 24.6725Z" fill="#44C5FF"/>
<path fill-rule="evenodd" clip-rule="evenodd" d="M38.8748 37.5895C35.7068 38.3597 32.5738 39.2348 29.4584 40.215C29.0558 39.1298 28.6882 38.0446 28.3732 36.9244C29.5634 36.4344 30.8236 36.0143 32.0838 35.7343C29.2308 34.089 26.3954 32.4437 23.5424 30.7985C24.12 29.8883 24.6276 28.9257 25.0827 27.9455C28.0231 29.3283 30.8936 30.8685 33.7115 32.5488C33.5365 31.4636 33.2739 30.3609 32.9414 29.2582C33.0114 29.1007 33.0814 28.9607 33.1514 28.8207C34.1666 28.3656 35.1817 28.1556 36.2144 28.1556C37.1946 31.2711 38.0697 34.404 38.8398 37.572L38.8748 37.5895Z" fill="#44C5FF"/>
<path fill-rule="evenodd" clip-rule="evenodd" d="M96.4063 35.7343C97.684 36.0318 98.9267 36.4344 100.117 36.9244C99.7843 38.0271 99.4168 39.1123 99.0317 40.215C95.9162 39.2348 92.7832 38.3597 89.6153 37.5895C90.4204 34.369 91.2955 31.1485 92.2407 27.963C93.2908 28.1906 94.2885 28.4706 95.3036 28.8557C95.3737 28.9957 95.4437 29.1357 95.5137 29.2932C95.1636 30.3784 94.9186 31.4811 94.7436 32.5838C97.474 30.991 100.257 29.4508 103.057 27.9805C103.792 28.8557 104.388 29.8008 104.913 30.8335C102.077 32.4787 99.2418 34.124 96.3888 35.7693L96.4063 35.7343Z" fill="#44C5FF"/>
<path fill-rule="evenodd" clip-rule="evenodd" d="M75.403 48.0912C74.4579 42.6128 71.2549 39.4098 65.7765 38.4647V34.7541H62.276V38.4647C56.8151 39.4098 53.5946 42.6128 52.6495 48.0912H48.9389V51.5917H52.6495C53.5946 57.0701 56.8151 60.2731 62.276 61.2182V64.9288H65.7765V61.2182C71.2549 60.2731 74.4579 57.0701 75.403 51.5917H79.1136V48.0912H75.403ZM71.9025 51.8193C71.0273 54.8823 69.0495 56.8601 65.9866 57.7352C65.7765 56.65 65.7065 55.5649 65.7765 54.4447H62.276C62.346 55.5474 62.276 56.6325 62.0659 57.7352C59.003 56.8601 57.0427 54.8823 56.1675 51.8193C57.2352 51.6092 58.3379 51.5217 59.4405 51.6092V48.1087C58.3554 48.1787 57.2527 48.1087 56.1675 47.8987C56.6401 46.4634 57.3577 45.1857 58.3379 44.0656C59.423 43.1904 60.5957 42.5078 61.8384 41.9827C62.2585 42.9804 62.416 44.0831 62.276 45.2733H65.7765C65.7065 44.1706 65.7765 43.0854 65.9866 41.9827C69.0495 42.8754 71.0273 44.8357 71.9025 47.8987C70.8173 48.1087 69.7321 48.1962 68.612 48.1087V51.6092C69.7146 51.5392 70.7998 51.6092 71.9025 51.8193Z" fill="#44C5FF"/>
<path fill-rule="evenodd" clip-rule="evenodd" d="M34.4816 50.9441C32.2238 53.307 29.9309 55.6349 27.5856 57.9452C26.7454 57.1051 25.9228 56.265 25.0827 55.4248C25.9578 54.5497 26.8329 53.6746 27.6906 52.7994C24.4876 52.6944 21.2846 52.6594 18.0816 52.6944V49.1939C21.2846 49.2464 24.4876 49.1939 27.6906 49.0888C26.8154 48.2137 25.9403 47.3386 25.0827 46.4809C25.9228 45.6758 26.7279 44.8357 27.4805 43.9605C29.8959 46.2184 32.2238 48.5463 34.4816 50.9616V50.9441Z" fill="#44C5FF"/>
<path fill-rule="evenodd" clip-rule="evenodd" d="M110.409 52.6769C107.205 52.6419 103.985 52.6769 100.782 52.7819C101.657 53.6746 102.532 54.5322 103.407 55.4073C102.567 56.2475 101.727 57.0876 100.887 57.9277C98.5592 55.6174 96.2488 53.2895 93.9909 50.9266C96.2663 48.5988 98.5241 46.2534 100.782 43.9255C101.692 44.7132 102.567 45.5533 103.407 46.4459C102.532 47.3211 101.657 48.1962 100.782 49.0538C103.985 49.1589 107.205 49.2114 110.409 49.1589V52.6769Z" fill="#44C5FF"/>
<path fill-rule="evenodd" clip-rule="evenodd" d="M61.4008 69.7596C58.5304 73.6627 54.7323 74.9404 50.0241 73.5927C48.1338 72.8051 46.5585 71.5974 45.3158 69.9871C45.1758 69.8121 45.2108 69.6546 45.4208 69.5495C46.366 69.042 47.2411 68.4644 48.0463 67.7993C50.7942 71.0898 53.9447 71.4748 57.4627 68.9895C57.8653 68.6394 58.1978 68.2368 58.4429 67.7993C59.4055 68.4819 60.4032 69.1295 61.4008 69.7596Z" fill="#44C5FF"/>
<path fill-rule="evenodd" clip-rule="evenodd" d="M82.8417 69.7596C79.9712 73.6627 76.1732 74.9404 71.4649 73.5927C69.5746 72.8051 68.0169 71.5974 66.7742 69.9871C66.6167 69.8121 66.6517 69.6546 66.8792 69.5495C67.8068 69.042 68.682 68.4644 69.4871 67.7993C72.13 70.9323 75.193 71.4048 78.676 69.217C79.1661 68.8144 79.5687 68.3244 79.8662 67.7993C80.8289 68.4819 81.8265 69.1295 82.8242 69.7596H82.8417Z" fill="#44C5FF"/>
<path fill-rule="evenodd" clip-rule="evenodd" d="M116.097 112.746C113.279 111.136 106.505 108.948 103.337 107.968C95.3736 105.378 87.3924 102.77 79.4462 100.162C79.3061 98.044 79.3061 95.9262 79.4462 93.8083C85.4846 89.5027 89.1952 83.6568 90.5954 76.3056C94.096 75.4305 96.5113 73.3126 97.8065 69.9521C98.2266 67.5192 98.5592 65.0863 98.8042 62.6185C98.6992 61.6208 98.5241 60.6406 98.2616 59.6605C96.8789 56.4225 94.4285 54.6897 90.9105 54.4097C90.7004 44.2581 86.3422 36.4869 77.8009 31.096C68.5245 25.9852 56.2375 26.4053 47.0661 33.2139C47.0311 33.2489 46.9961 33.2664 46.9611 33.2839C40.5201 38.8147 37.2471 45.8508 37.1071 54.3922C36.2844 54.3572 35.4968 54.4622 34.6917 54.7247C31.0336 56.0199 29.0558 58.6103 28.7932 62.4959C29.0033 64.6313 29.2483 66.7316 29.5634 68.8494C30.7711 72.8401 33.3965 75.3079 37.4396 76.2881C38.8573 83.6392 42.5679 89.4852 48.5888 93.7908C48.7464 95.9087 48.7464 98.0265 48.5888 100.144C37.1771 103.89 25.7653 107.653 14.3535 111.416C10.8179 112.781 8.70011 115.302 8 118.96V120.5H11.5005C11.6056 117.892 12.8483 116.037 15.2111 114.917C26.4654 111.084 37.7722 107.408 49.1314 103.872C49.3765 105.185 49.919 106.34 50.7592 107.373C54.3997 111.626 58.8104 114.829 63.9912 116.999C69.1721 114.829 73.5827 111.609 77.2233 107.373C78.0634 106.34 78.606 105.185 78.8511 103.872C86.4298 106.165 93.9734 108.581 101.5 111.119C101.5 111.119 101.535 111.119 101.57 111.154C103.495 111.871 109.761 113.814 111.669 114.479C112.666 114.934 113.594 115.442 114.522 116.002C115.852 117.192 116.534 118.697 116.499 120.5H120V118.96C119.545 116.369 118.25 114.269 116.062 112.729L116.097 112.746ZM90.928 57.9452C93.4834 58.4878 94.9361 60.0631 95.3211 62.636C95.0936 64.8063 94.7611 66.9591 94.3235 69.0945C93.6584 70.6872 92.5207 71.7899 90.928 72.385V57.9452ZM37.002 72.595C35.3218 71.7899 34.0966 70.5647 33.2915 68.8844C32.8364 66.8366 32.5213 64.7538 32.3113 62.6535C32.6263 60.3431 33.8515 58.7854 36.0219 57.9627H37.1071C37.1421 62.846 37.107 67.7293 37.002 72.6125V72.595ZM75.508 103.225C73.7403 106.375 71.2899 108.896 68.1744 110.768C66.8267 111.574 65.444 112.344 64.0263 113.079C60.2982 111.224 56.9727 108.808 54.0672 105.868C53.2621 104.818 52.667 103.645 52.3169 102.367C52.2119 100.249 52.1769 98.1315 52.2119 96.0137C60.0181 99.4967 67.8244 99.4967 75.6306 96.0137C75.9456 98.4291 75.8931 100.844 75.5256 103.225H75.508ZM60.0881 94.806C49.0439 92.2331 42.5854 85.3545 40.7126 74.1528C40.6776 70.4597 40.6426 66.7841 40.6076 63.091C40.5726 58.8204 40.6776 54.5672 40.9401 50.2965C42.0603 44.7657 44.6682 40.1624 48.8339 36.4694C57.0252 30.4309 65.689 29.7483 72.9877 32.6888C81.3715 36.4694 86.1497 42.9279 87.3224 52.0468C87.4799 59.3454 87.4799 66.6441 87.3224 73.9252C86.9723 77.3558 85.9747 80.5763 84.2769 83.5517C78.5185 92.1631 70.4673 95.9262 60.1056 94.8235L60.0881 94.806Z" fill="#44C5FF"/>
</svg>
