<svg width="128" height="129" viewBox="0 0 128 129" fill="none" xmlns="http://www.w3.org/2000/svg">
<path fill-rule="evenodd" clip-rule="evenodd" d="M113.026 96.9752C112.071 97.9555 111.117 98.9008 110.163 99.8812C110.006 100.021 109.868 100.021 109.712 99.8812L97.9996 88.0646C99.7867 86.9268 101.001 85.3162 101.643 83.268C102.216 79.9594 101.643 76.8258 99.995 73.9023C100.949 72.7119 101.799 71.4515 102.528 70.1035C104.749 65.1668 103.968 60.7728 100.203 56.9565C103.292 51.0045 102.042 46.2779 96.438 42.7767L109.92 29.1746C110.076 29.017 110.215 29.017 110.371 29.1746L113.251 32.0805C114.205 32.4657 115.038 32.2906 115.784 31.5204C117.172 24.9906 118.491 18.4434 119.775 11.8787C120.452 9.53285 119.602 8.44748 117.224 8.64005C110.492 9.953 103.777 11.4235 97.1147 12.9815C96.4901 13.6117 96.2992 14.347 96.5595 15.2048C97.5485 16.4302 98.6242 17.5856 99.7694 18.671L88.3871 30.1549C86.0968 29.2096 83.7024 28.7019 81.2038 28.5794C76.9181 19.8089 71.175 18.6885 63.9743 25.2357C56.6695 18.6535 50.9263 19.8089 46.7274 28.6844C44.3503 28.6144 42.06 29.0345 39.8738 29.9273C36.0739 26.1985 32.3261 22.4523 28.5956 18.6535C29.6714 17.5681 30.7472 16.4827 31.8056 15.4149C32.1873 14.5746 32.0832 13.8043 31.4759 13.0691C24.1017 11.1959 16.6581 9.65539 9.12781 8.5C8.48583 9.00767 8.12146 9.6729 8.01735 10.5132C9.38808 17.5331 10.8282 24.518 12.3377 31.4853C12.9971 32.0981 13.7605 32.2906 14.6628 32.0455C15.7559 31.1527 16.797 30.1899 17.7513 29.1395C17.8901 28.982 18.0462 28.982 18.185 29.1395C22.6269 33.6036 27.034 38.0501 31.4585 42.5316C25.6113 46.0678 24.2752 50.8995 27.4678 57.0266C23.772 60.5102 22.8524 64.6417 24.709 69.4033C25.4898 71.0138 26.4094 72.5368 27.4678 73.9723C26.7391 75.5829 26.1838 77.2459 25.8195 78.9965C25.0907 82.9704 26.3747 86.0515 29.6714 88.2572C25.8368 92.126 22.0196 95.9949 18.1677 99.8637C18.0289 100.004 17.8727 100.004 17.7339 99.8637C16.7622 98.8133 15.7212 97.833 14.6454 96.9577C13.7605 96.7126 12.9797 96.8877 12.3204 97.5179C10.8109 104.485 9.37073 111.47 8 118.49C8.0694 119.4 8.50318 120.031 9.33603 120.381C16.4326 119.26 23.5118 117.93 30.5563 116.354C31.3891 115.777 31.6494 114.989 31.3371 114.008C30.3481 112.783 29.2897 111.628 28.1271 110.542C30.9033 107.724 33.6968 104.923 36.525 102.174C38.8154 103.768 41.3139 104.835 44.038 105.413C46.6233 106.831 49.3474 107.794 52.2277 108.319C56.3746 109.107 60.1571 108.319 63.6099 105.973C64.8939 106.971 66.334 107.689 67.9303 108.091C73.2224 108.984 78.2368 108.091 82.9563 105.413C85.8192 104.87 88.4045 103.715 90.7122 101.964C93.6271 104.783 96.4901 107.654 99.3356 110.542C98.1904 111.628 97.1147 112.783 96.1257 114.008C95.9001 114.831 96.0736 115.532 96.6636 116.127C103.344 117.702 110.041 119.103 116.791 120.363C118.543 120.818 119.567 120.136 119.879 118.35C118.508 111.295 117.034 104.258 115.455 97.2553C114.726 96.5375 113.91 96.415 113.008 96.9227L113.026 96.9752ZM19.4864 24.9206C18.5147 24.2029 17.5604 24.2029 16.6061 24.9206C16.0509 25.4633 15.4956 26.041 14.9404 26.5837C14.0208 21.9796 13.1706 17.3755 12.4072 12.754C16.849 13.6643 21.2562 14.6446 25.6807 15.6599C25.0734 16.2902 24.5355 16.9554 24.015 17.6731C23.8588 18.2683 23.8588 18.8635 24.015 19.4412C28.1098 23.5726 32.2046 27.7041 36.2821 31.818C34.4429 33.8662 33.5233 36.2995 33.506 39.0654C28.8212 34.3388 24.1364 29.6297 19.469 24.9031L19.4864 24.9206ZM24.2405 109.369C23.9109 110.017 23.8588 110.665 24.015 111.383C24.5528 112.153 25.1775 112.853 25.8889 113.501C21.4644 114.481 17.0572 115.391 12.6154 116.302C12.546 116.109 12.4592 115.917 12.3898 115.742C13.2574 111.295 14.177 106.866 15.1486 102.455C15.9468 103.522 16.9358 104.258 18.133 104.695C18.6015 104.573 19.0526 104.38 19.469 104.135C23.5638 100.039 27.624 95.9073 31.6147 91.7584C31.9964 93.544 32.4649 95.3296 33.0548 97.1152C33.3671 97.8855 33.7662 98.5857 34.2694 99.2335L24.2058 109.387L24.2405 109.369ZM47.9073 88.8349C51.1519 91.9685 55.0385 93.1414 59.5151 92.3011C60.3479 92.1435 61.1461 91.9685 61.9616 91.7409C62.2045 95.4697 62.2565 99.1809 62.0657 102.91C58.6302 105.098 54.9865 105.501 51.1172 104.135C49.4515 103.61 47.8205 102.927 46.2416 102.122C45.2005 100.004 44.8709 97.798 45.2699 95.5397C44.6106 94.5068 43.691 94.1567 42.4938 94.5419C42.0253 94.927 41.6783 95.3996 41.5048 95.9773C41.3313 97.6404 41.418 99.286 41.7303 100.897C37.9825 99.216 35.9351 96.31 35.536 92.1786C35.4666 90.603 35.536 89.045 35.7616 87.5045C35.2584 86.4191 34.4256 85.8589 33.2283 85.8239C29.4979 84.3009 28.4395 81.64 30.0184 77.9112C30.2266 77.1234 30.591 76.4757 31.1289 75.898C33.9571 76.4757 36.8026 76.4757 39.6309 75.898C39.8217 77.4735 40.3075 78.9615 41.0536 80.362C41.8344 81.0973 42.6673 81.2023 43.6042 80.6946C44.0727 80.292 44.2809 79.7668 44.2809 79.1366C41.418 73.5697 42.8234 69.5608 48.4799 67.075C50.2844 66.4448 52.1409 65.9371 53.9975 65.517C55.2815 63.8714 54.8997 62.716 52.887 62.0508C49.1218 62.5409 45.7384 63.9239 42.7193 66.1822C41.0363 67.8102 39.8564 69.7534 39.1797 71.9942C36.4209 72.7644 33.6968 72.7119 30.9901 71.8891C29.4111 70.2611 28.3354 68.3179 27.7801 66.0771C27.4505 63.4863 28.266 61.333 30.2093 59.6174C32.8466 61.298 35.6748 61.9282 38.7113 61.5081C39.6656 60.3702 39.5788 59.3374 38.4857 58.392C35.883 58.3045 33.5233 57.5167 31.4065 56.0462C28.2139 50.8469 29.4632 47.1882 35.1717 45.105C36.1433 45.8402 37.115 46.628 38.0519 47.4508C40.7413 49.5515 43.7777 50.3743 47.1091 49.9191C47.8726 48.9913 47.942 48.0285 47.3347 47.0131C43.5695 46.628 40.4464 45.0175 37.9305 42.2165C36.8026 35.3367 39.7003 32.1156 46.6754 32.5182C47.0224 33.7261 47.6644 34.7064 48.6707 35.4242C50.5446 35.4592 51.256 34.5314 50.7702 32.6232C50.4058 31.9405 50.0761 31.2228 49.7812 30.505C50.614 28.3343 51.9674 26.5662 53.7719 25.1482C54.3098 24.9906 54.8477 24.7981 55.3162 24.588C56.6001 24.6755 57.7973 25.0957 58.8558 25.8309C59.9836 26.7412 61.042 27.7391 62.0657 28.8419C62.2045 32.7108 62.2045 36.5621 62.0657 40.4484C59.3069 42.1115 56.7736 41.8664 54.4313 39.6606C52.2277 39.363 51.4469 40.3084 52.1062 42.4616C55.0212 45.21 58.3526 45.9453 62.1698 44.6848V51.8273C59.0119 51.092 55.9234 51.2846 52.887 52.37C51.1346 53.1052 50.0241 54.3657 49.573 56.1688C49.573 57.3242 50.1629 57.9544 51.3254 58.0594C51.7071 57.9719 52.0715 57.8493 52.4532 57.7093C53.3381 56.3613 54.6048 55.5386 56.2011 55.2585C58.2138 55.0659 60.1918 55.1884 62.1698 55.5911C62.2045 61.9107 62.1698 68.2479 62.0657 74.5675C60.4867 75.4603 58.8211 75.6529 57.086 75.1102C56.2184 74.6026 55.2815 74.1999 54.3098 73.8848C52.7309 74.2524 52.2277 75.1978 52.7656 76.7908C55.5417 79.0666 58.6822 79.7493 62.1698 78.804C62.2392 81.8325 62.1698 84.8435 61.9442 87.8371C58.3352 89.3776 54.8824 89.15 51.551 87.1718C51.0305 86.6467 50.5099 86.1215 49.9894 85.5963C47.4388 85.4212 46.7448 86.5066 47.8899 88.8349H47.9073ZM91.7012 31.958C95.5878 27.7916 99.5785 23.6952 103.639 19.6863C103.968 19.0386 104.038 18.3734 103.864 17.6731C103.361 16.9729 102.806 16.2902 102.216 15.6599C106.502 14.6796 110.787 13.7168 115.038 12.754C115.299 12.824 115.437 12.999 115.489 13.3141C114.622 17.7432 113.702 22.1722 112.713 26.5837C111.915 25.5333 110.926 24.7981 109.729 24.3604C109.26 24.483 108.827 24.6755 108.41 24.9206C103.569 29.7873 98.7457 34.6539 93.9221 39.5381C93.8874 36.9822 93.1587 34.6714 91.7185 32.6232C91.5624 32.3957 91.5624 32.1856 91.7185 31.958H91.7012ZM89.7058 80.8172C89.3935 81.3073 89.3241 81.815 89.4802 82.3752C90.556 84.5985 91.4409 86.9092 92.135 89.2901C92.6034 93.2989 91.3021 96.6076 88.2657 99.216C87.5022 99.7411 86.6867 100.161 85.8365 100.441C86.305 98.8308 86.3571 97.1677 85.9407 95.5397C85.4895 94.3318 84.6567 93.9291 83.4074 94.3143C82.9216 94.4893 82.5746 94.8395 82.4184 95.2946C82.6787 97.7104 82.2796 100.021 81.1865 102.209C77.8898 104.1 74.3502 104.958 70.5677 104.783C68.6938 104.59 67.0281 103.89 65.5879 102.665C65.4838 98.9359 65.4491 95.2246 65.4838 91.4958C68.5723 92.4236 71.6608 92.5287 74.7666 91.8284C76.8487 91.2157 78.5838 90.0778 79.9546 88.3798C80.718 85.9464 79.8852 85.0186 77.4213 85.5788C75.2524 88.0471 72.5283 89.01 69.2316 88.4848C67.965 88.2572 66.7157 87.9946 65.4665 87.697V78.5414C68.7111 79.4692 71.7302 78.979 74.5411 77.1059C75.7036 74.7251 74.9748 73.6747 72.3375 73.9898C70.1513 75.4078 67.8783 75.5829 65.4838 74.55V55.5736C67.6354 55.0659 69.7695 54.9609 71.8863 55.2409C73.3265 55.5386 74.437 56.3263 75.2177 57.5868C76.7967 58.1294 77.8204 57.6218 78.3062 56.0287C77.5428 53.823 76.0332 52.405 73.7603 51.7923C71.0709 51.1971 68.3814 51.1971 65.692 51.7923C65.4491 49.3239 65.3971 46.8731 65.5879 44.4223C68.6764 45.5251 71.574 45.1925 74.3328 43.4244C74.8881 42.9167 75.3739 42.3741 75.7556 41.7438C76.0853 40.3084 75.5301 39.5031 74.1073 39.293C72.858 39.9057 71.6087 40.5534 70.3421 41.1837C68.607 41.5513 67.0281 41.2187 65.5879 40.1858C65.4491 36.4045 65.4491 32.6057 65.5879 28.8244C67.1322 26.7762 69.0928 25.3583 71.4526 24.5705C73.7776 24.7455 75.5127 25.8659 76.6405 27.9316C77.0396 28.7544 77.456 29.5597 77.8551 30.3825C77.1264 31.5554 76.7967 32.8158 76.8661 34.1813C77.2131 34.864 77.7683 35.1441 78.5318 35.0741C78.9135 35.0391 79.2779 34.9865 79.6422 34.8465C80.1628 34.0937 80.6139 33.271 80.9609 32.3957C87.936 31.8705 90.8336 35.0741 89.7058 41.9889C87.3808 44.8424 84.3964 46.3654 80.7527 46.5755C79.5728 47.6959 79.5728 48.7987 80.7527 49.9191C83.7371 50.1292 86.4612 49.394 88.9424 47.6959C90.0181 46.6805 91.1633 45.7527 92.3605 44.8949C97.8781 46.8731 99.2142 50.4443 96.3512 55.6086C94.2518 57.2541 91.8573 58.1119 89.1679 58.1819C87.9881 59.3023 87.9881 60.4052 89.1679 61.5256C92.0656 61.7707 94.755 61.1405 97.2361 59.6349C99.1968 61.0704 100.082 62.9961 99.8908 65.4469C99.353 67.8978 98.2078 70.016 96.4554 71.8016C93.7312 72.5368 91.0071 72.5368 88.2657 71.8016C87.3461 68.3354 85.2813 65.7971 82.0714 64.2215C79.434 62.786 76.6405 62.1033 73.6735 62.2083C72.5977 63.1887 72.5283 64.2215 73.4479 65.3244C76.4497 65.8321 79.2432 66.8824 81.8458 68.4404C84.3444 70.4536 85.1252 73.0095 84.1709 76.1256C83.8412 77.1059 83.5115 78.0512 83.1818 79.0316C83.6677 80.8347 84.7434 81.2723 86.3918 80.362C87.1032 79.0141 87.6237 77.5961 87.9534 76.1256C88.0575 75.898 88.2483 75.7404 88.5086 75.6879C91.2327 76.2656 93.9568 76.2656 96.6809 75.6879C98.069 77.7361 98.5548 79.9594 98.121 82.3752C97.375 83.8107 96.2645 84.8436 94.807 85.4913C94.0956 84.0383 93.4363 82.5328 92.8116 81.0272C91.84 79.6268 90.8163 79.5567 89.7232 80.7997L89.7058 80.8172ZM115.68 116.284C111.169 115.339 106.675 114.376 102.199 113.378C102.875 112.678 103.482 111.925 104.072 111.155C104.229 110.525 104.159 109.93 103.847 109.369C100.429 105.921 96.9932 102.455 93.5577 98.9884C94.9979 96.555 95.744 93.9116 95.7787 91.0582C100.221 95.4347 104.645 99.8637 109.035 104.345C109.555 104.608 110.059 104.678 110.596 104.573C111.429 103.908 112.245 103.207 113.026 102.455C113.997 106.954 114.951 111.453 115.906 115.952C115.836 116.057 115.767 116.179 115.68 116.302V116.284Z" fill="#44C5FF"/>
</svg>
