<svg width="128" height="129" viewBox="0 0 128 129" fill="none" xmlns="http://www.w3.org/2000/svg">
<path fill-rule="evenodd" clip-rule="evenodd" d="M119.431 101.116C113.745 102.551 108.023 103.846 102.267 104.983C101.497 104.861 100.903 104.476 100.518 103.811C100.36 98.001 100.36 92.2089 100.518 86.4168C101.34 85.1744 102.407 84.9469 103.684 85.7169C103.929 85.9794 104.139 86.2943 104.279 86.6443C104.349 90.1791 104.437 93.6963 104.507 97.231C116.054 81.9896 118.871 65.2084 112.975 46.9222C106.449 30.4559 94.7441 19.6067 77.8257 14.3745C55.5185 9.29989 37.0604 15.5469 22.4864 33.0632C10.9042 49.477 8.87467 67.0107 16.3804 85.7169C19.1272 91.684 22.8188 97.0211 27.4202 101.693C27.7002 104.301 26.6504 105.14 24.2535 104.161C10.9042 90.1266 5.77791 73.4678 8.87467 54.2192C13.2311 33.9381 25.0058 19.8691 44.2162 12.0122C48.9751 10.2798 53.8389 9.14241 58.7902 8.59994C81.5873 7.44503 99.258 16.2994 111.785 35.163C120.848 50.8069 122.405 67.1682 116.491 84.282C114.392 89.7941 111.523 94.8512 107.918 99.4359C110.823 99.0159 113.727 98.4735 116.614 97.8085C119.606 97.196 120.533 98.2985 119.431 101.098V101.116Z" fill="#44C5FF"/>
<path fill-rule="evenodd" clip-rule="evenodd" d="M104.262 57.7364C104.087 57.1414 103.754 56.704 103.212 56.4415C100.57 56.389 97.9458 56.284 95.339 56.0915C94.5866 53.3442 93.5369 50.7194 92.1722 48.2171C93.7643 46.3972 95.4614 44.6298 97.211 42.95C97.5434 42.425 97.6134 41.8825 97.456 41.3051C94.5342 37.9103 91.4374 34.6556 88.1657 31.5408C87.3434 30.9108 86.4861 30.8233 85.5763 31.3133C83.8792 33.0807 82.1296 34.7606 80.2926 36.3704C77.7382 34.988 75.0613 33.9031 72.297 33.0632C72.227 30.4734 72.1395 27.9011 72.0695 25.3112C71.8071 24.7688 71.3872 24.4013 70.7748 24.2613C66.2259 24.1388 61.6945 24.1038 57.1456 24.1388C56.6032 24.3838 56.1658 24.7863 55.8509 25.3287C55.7984 27.9535 55.6935 30.5959 55.501 33.2032C52.7542 33.9381 50.1298 34.988 47.6279 36.3704C45.8083 34.7606 44.0412 33.0807 42.3442 31.3133C41.8368 30.9808 41.2944 30.9108 40.717 31.0858C37.3229 34.0081 34.0686 37.0879 30.9544 40.3602C30.3245 41.1826 30.2371 42.0575 30.7269 42.9675C32.494 44.6473 34.1736 46.4147 35.7657 48.2346C34.4011 50.7369 33.3338 53.3617 32.599 56.109C29.9921 56.319 27.3677 56.424 24.7259 56.459C24.1835 56.7215 23.8336 57.1589 23.6761 57.7539C23.5187 62.3036 23.5187 66.8357 23.6761 71.3854C23.8511 71.9979 24.1835 72.4353 24.7259 72.6803C27.3328 72.7503 29.9046 72.8378 32.494 72.9078C33.3163 75.6901 34.4011 78.3499 35.7832 80.9047C34.1911 82.7421 32.5115 84.492 30.7444 86.1893C30.2546 87.0993 30.342 87.9392 30.9719 88.7792C33.9112 91.7189 36.833 94.6587 39.7723 97.5985C40.5946 98.2285 41.4519 98.2985 42.3617 97.826C44.0587 96.0586 45.8258 94.3613 47.6454 92.7689C49.08 93.4688 50.5322 94.1338 52.0018 94.7637C41.8543 99.5934 36.0457 107.59 34.611 118.737C34.7685 119.472 35.1709 120.014 35.7832 120.382C54.3638 120.539 72.9268 120.539 91.4899 120.382C91.8573 120.084 92.1197 119.752 92.3122 119.332C91.3499 108.028 85.7513 99.9084 75.5162 94.9912C77.1258 94.2913 78.7529 93.5388 80.345 92.7689C82.1821 94.3613 83.9317 96.0586 85.6288 97.826C86.1362 98.141 86.6785 98.211 87.2559 98.0535C90.6676 95.1312 93.9218 92.0339 97.0186 88.7617C97.6484 87.9392 97.7359 87.0818 97.246 86.1719C95.4964 84.4745 93.7993 82.7246 92.2072 80.8872C93.5719 78.3324 94.6741 75.6726 95.4964 72.8903C98.0858 72.8203 100.675 72.7328 103.265 72.6628C103.807 72.4178 104.157 71.9804 104.314 71.3679C104.472 66.8182 104.472 62.2861 104.314 57.7364H104.262ZM57.8454 69.3731C55.1161 70.668 52.9816 72.5928 51.3895 75.1301C46.3157 68.2181 46.2457 61.2536 51.162 54.2192C54.1363 50.7719 57.8629 48.742 62.3244 48.1121C71.5622 48.0596 77.4757 52.4518 80.0826 61.2711C81.0274 66.6958 79.7152 71.4729 76.0761 75.6026C71.6147 68.9356 65.5261 66.8707 57.8629 69.3731H57.8454ZM65.6136 92.1739C58.4578 92.6989 54.3813 89.4091 53.384 82.3046C53.8739 77.0725 56.6032 73.7477 61.607 72.3128C67.9405 71.8229 71.8946 74.6402 73.4867 80.7822C73.8891 86.6968 71.2822 90.5115 65.6136 92.1739ZM86.871 112.507C87.3609 113.855 87.7808 115.237 88.1657 116.62C71.7896 116.742 55.4135 116.777 39.0549 116.742C41.3469 106.505 47.5229 99.9434 57.618 97.1086C59.2801 96.7586 60.9247 96.4786 62.5518 96.2861C74.1165 96.6186 82.2171 102.008 86.8885 112.525L86.871 112.507ZM100.378 68.7781C97.9458 68.7431 95.5314 68.7781 93.0995 68.9006C92.7671 69.0056 92.4871 69.1981 92.2772 69.4781C91.6124 71.8054 90.825 74.0627 89.9328 76.3026C89.0405 77.9299 88.2182 79.5923 87.4658 81.2547C87.4658 81.6747 87.5883 82.0597 87.8158 82.4271C89.4254 84.037 91.035 85.6469 92.6446 87.2568C90.6501 89.2516 88.6381 91.264 86.661 93.2413C84.9639 91.474 83.2144 89.7941 81.3773 88.1842C80.9049 88.0267 80.4325 88.0267 79.9601 88.1842C78.438 89.2516 76.7934 90.0741 75.0263 90.6515C77.1958 87.4318 77.9656 83.9145 77.3708 80.0648C84.0192 73.7127 85.9437 66.1008 83.1269 57.2639C79.5228 48.8995 73.1368 44.5074 63.969 44.1049C53.7339 44.6823 47.103 49.8445 44.1112 59.6263C42.5016 67.0982 44.3212 73.6078 49.5174 79.1374C49.0276 83.0746 49.7624 86.7668 51.7569 90.1791C50.4272 89.6716 49.15 88.9892 47.9953 88.1667C47.5229 88.0092 47.0505 88.0092 46.5781 88.1667C44.7411 89.7766 42.9915 91.4565 41.2944 93.2238C39.2999 91.229 37.3054 89.2166 35.3108 87.2393L40.1397 82.4096C40.3496 82.0596 40.4721 81.6572 40.4896 81.2372C39.2299 78.8924 38.0927 76.4426 37.0604 73.9402C36.623 72.5578 36.2381 71.1404 35.8882 69.723C35.6083 69.3556 35.2584 69.0931 34.8385 68.9006C32.4065 68.7781 29.9921 68.7431 27.5602 68.7781V60.3087C30.1671 60.4137 32.7565 60.3087 35.3108 59.9587C35.5908 59.7488 35.8007 59.4688 35.9057 59.1363C36.8155 55.3566 38.3026 51.8218 40.3671 48.5496C40.5421 47.9021 40.4546 47.2547 40.1397 46.6597C38.5301 45.0498 36.9205 43.4574 35.3108 41.8475C37.3229 39.8352 39.3174 37.8403 41.2944 35.8455C42.904 37.4554 44.5136 39.0652 46.1233 40.6751C46.4732 40.8851 46.8756 41.0251 47.313 41.0251C49.4475 39.9052 51.6344 38.8378 53.8914 37.8578C55.501 37.3329 57.1631 36.8604 58.8252 36.4404C59.1751 36.1605 59.4551 35.8105 59.6475 35.3905C59.7525 32.9582 59.805 30.5434 59.7525 28.111H68.2205C68.1155 30.7183 68.2205 33.3082 68.5704 35.863C68.7803 36.143 69.0603 36.3529 69.3752 36.4579C73.1543 37.3679 76.6884 38.8553 79.9601 40.9201C80.625 41.1126 81.2548 41.0076 81.8497 40.6926C83.4593 39.0827 85.0689 37.4904 86.6785 35.863C88.6731 37.8753 90.6851 39.8702 92.6621 41.865C91.0525 43.4749 89.4429 45.0673 87.8333 46.6772C87.6233 47.0272 87.5008 47.4471 87.4833 47.8671C88.7255 50.2119 89.8628 52.6443 90.895 55.1466C91.3324 56.5465 91.7173 57.9464 92.0672 59.3813C92.3472 59.7313 92.6971 60.0112 93.117 60.2037C95.5489 60.3087 97.9633 60.3612 100.395 60.3087V68.7781H100.378Z" fill="#44C5FF"/>
</svg>
