<svg width="65" height="64" viewBox="0 0 65 64" fill="none" xmlns="http://www.w3.org/2000/svg">
<circle cx="32.5" cy="32" r="32" fill="#02213A"/>
<path fill-rule="evenodd" clip-rule="evenodd" d="M47.315 30.28C46.31 30.005 45.29 29.84 44.25 29.78C44.95 27.87 45.06 25.925 44.595 23.94C44.475 23.655 44.255 23.495 43.94 23.47C41.835 23.02 39.79 23.215 37.815 24.065C37.285 20.69 35.66 18.005 32.94 16H32.19C29.47 18.005 27.845 20.69 27.315 24.065C25.34 23.215 23.295 23.015 21.19 23.47C20.875 23.495 20.655 23.655 20.535 23.94C20.065 25.925 20.18 27.87 20.875 29.78C19.44 29.82 18.065 30.13 16.75 30.72C16.645 30.845 16.56 30.98 16.5 31.125V32.565C16.615 33.615 16.875 34.635 17.285 35.625C18.785 38.845 21.295 40.72 24.815 41.25V42.75C24.555 42.765 24.305 42.815 24.065 42.905C23.235 43.29 22.7 43.925 22.47 44.815C22.295 46.425 22.97 47.48 24.5 47.97C29.875 48.01 35.25 48.01 40.625 47.97C41.125 47.855 41.565 47.625 41.94 47.28C42.78 46.28 42.915 45.185 42.345 44C41.83 43.21 41.105 42.775 40.16 42.69C40.115 42.23 40.115 41.77 40.16 41.315C44.64 40.555 47.42 37.97 48.5 33.565V30.815C48.125 30.605 47.73 30.425 47.315 30.28ZM21.69 24.69C23.61 24.345 25.445 24.605 27.19 25.47C27.165 25.73 27.2 25.99 27.285 26.25C27.545 26.575 27.865 26.65 28.25 26.47C28.44 26.315 28.53 26.12 28.535 25.875C28.58 22.465 29.885 19.65 32.44 17.44C32.525 17.43 32.61 17.44 32.69 17.47C35.25 19.67 36.555 22.47 36.595 25.875C36.665 26.46 36.99 26.675 37.565 26.53C37.66 26.44 37.75 26.345 37.845 26.25C37.93 25.99 37.965 25.73 37.94 25.47C39.685 24.605 41.52 24.345 43.44 24.69C43.985 28.455 42.7 31.415 39.595 33.565C38.625 32.03 37.215 31.27 35.375 31.28C36.075 30.37 36.36 29.34 36.22 28.19C35.95 26.035 34.73 24.865 32.565 24.69C30.395 24.865 29.18 26.035 28.91 28.19C28.77 29.34 29.055 30.37 29.75 31.28C27.875 31.205 26.425 31.945 25.41 33.5C22.39 31.33 21.15 28.395 21.69 24.69ZM34.94 28.655C34.9 30.225 34.11 31.11 32.565 31.315C31.02 31.11 30.23 30.225 30.19 28.655C30.235 27.19 30.96 26.305 32.375 26C34.025 26.115 34.88 27 34.94 28.655ZM18.035 33.69C17.87 33.03 17.82 32.36 17.875 31.69C18.715 31.38 19.57 31.19 20.44 31.125C20.795 31.15 21.15 31.18 21.5 31.22C22.35 32.695 23.495 33.88 24.94 34.78C24.895 34.89 24.86 35.005 24.845 35.125C24.815 36.73 24.805 38.335 24.815 39.94C21.265 39.25 19.005 37.17 18.035 33.69ZM31.97 44.44C31.905 44.98 31.865 45.52 31.845 46.065C31.73 46.345 31.535 46.545 31.25 46.655C29.065 46.7 26.875 46.7 24.69 46.655C23.67 46.115 23.48 45.365 24.125 44.405C24.39 44.19 24.68 44.055 25 44C27.38 43.98 29.755 44 32.125 44.065C32.06 44.18 32.005 44.305 31.97 44.44ZM28.625 42.69C28.64 40.5 28.625 38.315 28.595 36.125C28.36 35.67 28.015 35.555 27.565 35.78C27.44 35.865 27.37 35.98 27.345 36.125C27.315 38.315 27.305 40.5 27.315 42.69H26.125C26.1 40.125 26.125 37.56 26.22 35C26.62 33.695 27.485 32.9 28.815 32.625C31.25 32.615 33.69 32.625 36.125 32.655C37.54 32.945 38.425 33.79 38.785 35.19C38.815 37.69 38.825 40.19 38.815 42.69H37.625C37.64 41.355 37.625 40.02 37.595 38.69C37.225 38.22 36.83 38.2 36.41 38.625C36.39 38.71 36.365 38.795 36.345 38.875C36.315 40.145 36.305 41.415 36.315 42.69H28.625ZM40.44 44.095C41.37 44.515 41.61 45.195 41.16 46.125C40.97 46.375 40.73 46.55 40.44 46.655C37.96 46.7 35.48 46.7 33 46.655C33.055 46.545 33.105 46.43 33.16 46.315C33.225 45.775 33.265 45.23 33.285 44.69C33.445 44.305 33.73 44.075 34.125 44C36.235 43.97 38.34 44.005 40.44 44.095ZM43.125 38.97C42.19 39.485 41.19 39.81 40.125 39.94C40.145 38.27 40.125 36.605 40.065 34.94C40.575 34.525 41.095 34.12 41.625 33.72C42.43 32.99 43.095 32.155 43.625 31.22C43.85 31.21 44.055 31.175 44.25 31.125C45.285 31.14 46.285 31.325 47.25 31.69C47.23 34.89 45.855 37.315 43.125 38.97Z" fill="#44C5FF"/>
</svg>
