<svg width="65" height="64" viewBox="0 0 65 64" fill="none" xmlns="http://www.w3.org/2000/svg">
<circle cx="32.5" cy="32" r="32" fill="#02213A"/>
<path fill-rule="evenodd" clip-rule="evenodd" d="M48.5 23.5V23C48.38 22.865 48.235 22.775 48.06 22.715C42.375 22.035 36.69 21.38 31 20.75C26.705 21.215 22.41 21.725 18.125 22.28C17.71 22.485 17.43 22.805 17.28 23.25C16.765 24.625 16.855 25.96 17.56 27.25C17.34 27.57 17.185 27.925 17.095 28.31C16.82 29.465 16.955 30.58 17.5 31.655C16.94 32.41 16.605 33.255 16.5 34.185V36.31C16.58 36.7 16.675 37.095 16.78 37.5C16.95 38.27 17.38 38.845 18.06 39.215C23.685 39.895 29.31 40.56 34.935 41.215C35.31 41.26 35.685 41.26 36.06 41.215C37.21 41.075 38.355 40.94 39.5 40.81C39.49 41.54 39.5 42.27 39.53 43C39.575 43.115 39.645 43.195 39.75 43.25H40.25C40.37 43.175 40.465 43.07 40.53 42.935C40.845 42.35 41.185 41.79 41.56 41.25C41.93 41.705 42.285 42.175 42.625 42.655C42.74 42.715 42.865 42.745 43 42.75C43.215 42.77 43.375 42.685 43.47 42.5C43.5 41.77 43.51 41.04 43.5 40.31C45.02 40.145 46.54 39.965 48.06 39.78C48.255 39.745 48.4 39.65 48.5 39.5V39C48.45 38.955 48.41 38.905 48.375 38.84C48.085 38.795 47.845 38.66 47.655 38.435C47.09 37.29 46.905 36.08 47.095 34.81C47.16 34.07 47.42 33.415 47.875 32.84C48.13 32.8 48.34 32.685 48.5 32.5V32C48.38 31.835 48.215 31.73 48 31.685C47.65 31.17 47.505 30.595 47.56 29.965C47.51 29.355 47.655 28.805 48 28.31C48.215 28.265 48.38 28.165 48.5 28V27.5C48.38 27.335 48.215 27.23 48 27.185C47.65 26.67 47.505 26.095 47.56 25.465C47.51 24.855 47.655 24.305 48 23.81C48.2 23.755 48.365 23.65 48.5 23.5ZM30.625 21.81C31.105 21.815 31.585 21.85 32.06 21.905C35.8 22.33 39.53 22.79 43.25 23.28C40.835 23.57 38.415 23.86 36 24.155C35.665 24.195 35.335 24.195 35 24.155C31.075 23.705 27.155 23.225 23.25 22.715C25.72 22.425 28.175 22.12 30.625 21.81ZM18.435 23.31C19.05 23.33 19.655 23.405 20.25 23.53C20.145 23.82 20.07 24.125 20.03 24.435C19.975 25.25 20.005 26.065 20.125 26.875C19.6 26.84 19.08 26.79 18.56 26.715C18.285 26.435 18.13 26.09 18.095 25.685C17.97 24.855 18.085 24.06 18.435 23.31ZM19.03 36.685C19.08 37.23 19.195 37.765 19.375 38.28C19.085 38.28 18.79 38.26 18.5 38.215C18.365 38.145 18.25 38.05 18.155 37.935C17.59 36.79 17.405 35.58 17.595 34.31C17.665 33.565 17.925 32.895 18.375 32.31C18.785 32.295 19.18 32.35 19.56 32.465C19.03 33.825 18.85 35.23 19.03 36.685ZM21.03 37C21.09 37.525 21.205 38.035 21.375 38.53C21.125 38.52 20.875 38.5 20.625 38.465C20.335 37.91 20.16 37.315 20.095 36.685C19.89 35.245 20.095 33.87 20.685 32.56C20.985 32.56 21.275 32.605 21.56 32.685C21.03 34.075 20.85 35.515 21.03 37ZM29.375 39.5C27.095 39.24 24.825 38.95 22.56 38.625C22.175 37.735 22.01 36.81 22.06 35.84C22.01 34.775 22.215 33.765 22.685 32.81C24.96 33.04 27.23 33.3 29.5 33.59C29.12 34.565 28.955 35.575 29 36.625C28.965 37.6 29.09 38.56 29.375 39.5ZM29.5 30.875C29.58 30.415 29.61 29.96 29.595 29.5C29.305 29.19 28.99 29.165 28.655 29.435C28.6 29.6 28.555 29.765 28.53 29.935C28.475 30.75 28.505 31.565 28.625 32.375C25.27 32.015 21.915 31.63 18.56 31.215C18.285 30.935 18.13 30.59 18.095 30.185C18.05 29.705 18.05 29.225 18.095 28.75C18.16 28.44 18.265 28.15 18.405 27.875C18.505 27.835 18.61 27.815 18.72 27.81C22.77 28.285 26.825 28.765 30.875 29.25C30.635 30.21 30.565 31.19 30.655 32.185C30.67 32.325 30.7 32.46 30.75 32.59C30.455 32.62 30.165 32.6 29.875 32.53C29.65 32 29.525 31.45 29.5 30.875ZM31.03 38.06C31.105 38.63 31.24 39.18 31.435 39.715C31.21 39.705 30.985 39.685 30.75 39.655C30.535 39.365 30.38 39.045 30.28 38.685C29.835 36.975 29.95 35.31 30.625 33.685C30.89 33.735 31.165 33.775 31.435 33.81C31.02 35.195 30.885 36.615 31.03 38.06ZM33.935 40C33.5 39.975 33.06 39.935 32.625 39.875C31.815 37.905 31.79 35.925 32.56 33.935C33.09 33.975 33.615 34.055 34.125 34.185C33.285 36.095 33.225 38.03 33.935 40ZM34.185 33.06C33.42 32.96 32.65 32.875 31.875 32.81C31.505 31.645 31.545 30.5 32 29.375C32.775 29.445 33.545 29.55 34.31 29.685C33.94 30.795 33.9 31.92 34.185 33.06ZM34.185 28.56C30.605 28.13 27.02 27.715 23.435 27.31C23.335 26.375 23.285 25.44 23.28 24.5C23.25 24.385 23.175 24.31 23.06 24.28C22.65 24.145 22.39 24.28 22.28 24.685C22.25 25.52 22.25 26.355 22.28 27.185C21.945 27.135 21.61 27.075 21.28 27C20.92 25.87 20.93 24.745 21.31 23.625C25.65 24.105 29.985 24.63 34.31 25.185C33.94 26.295 33.9 27.42 34.185 28.56ZM42.47 40.625C42.25 40.38 42.05 40.12 41.875 39.84C41.605 39.71 41.345 39.72 41.095 39.875C40.905 40.185 40.72 40.5 40.53 40.81C40.5 39.435 40.49 38.06 40.5 36.685C41.115 36.625 41.72 36.545 42.31 36.435H42.5C42.51 37.83 42.5 39.225 42.47 40.625ZM43.5 39.25V36.31C44.205 36.325 44.425 36.01 44.155 35.375C43.87 35.245 43.565 35.215 43.25 35.28C41.895 35.44 40.54 35.605 39.185 35.78C38.725 36.085 38.705 36.42 39.125 36.78C39.25 36.81 39.375 36.82 39.5 36.81V39.75C38.23 39.89 36.96 40.035 35.685 40.185C35.45 40.225 35.275 40.145 35.155 39.935C34.705 39.095 34.51 38.2 34.56 37.25C34.51 36.295 34.705 35.4 35.155 34.56C35.25 34.445 35.365 34.35 35.5 34.28C39.01 33.87 42.51 33.445 46 33H46.435C45.725 34.965 45.785 36.9 46.625 38.81C45.59 39 44.55 39.145 43.5 39.25ZM35.72 33.185C35.555 33.185 35.43 33.12 35.345 33C35.235 32.755 35.15 32.505 35.095 32.25C35.005 31.525 35.07 30.815 35.28 30.125C35.33 29.99 35.405 29.88 35.5 29.78C39.18 29.35 42.845 28.9 46.5 28.435H46.685C46.4 29.575 46.445 30.7 46.81 31.81C43.12 32.295 39.42 32.755 35.72 33.185ZM35.72 28.685C35.555 28.685 35.43 28.62 35.345 28.5C35.235 28.255 35.15 28.005 35.095 27.75C35.005 27.025 35.07 26.315 35.28 25.625C35.33 25.49 35.405 25.38 35.5 25.28C39.18 24.85 42.845 24.4 46.5 23.935H46.685C46.4 25.075 46.44 26.2 46.81 27.31C43.12 27.795 39.42 28.255 35.72 28.685Z" fill="#44C5FF"/>
</svg>
