<svg width="37" height="36" viewBox="0 0 37 36" fill="none" xmlns="http://www.w3.org/2000/svg">
<path fill-rule="evenodd" clip-rule="evenodd" d="M34.345 16.9551C33.47 13.7401 31.41 11.7851 28.16 11.0851C28.17 9.94506 28.16 8.80506 28.125 7.66006C28.095 7.54006 28.045 7.42506 27.985 7.31506C26.275 5.60006 24.565 3.89006 22.85 2.18006C22.76 2.13006 22.665 2.08506 22.57 2.04006C17.31 2.00506 12.045 1.99006 6.78499 2.00506C6.62499 2.10506 6.49499 2.24506 6.39999 2.42506C6.36499 3.56506 6.35499 4.70506 6.36499 5.84506C5.22499 5.83506 4.07999 5.84506 2.93999 5.88006C2.76499 5.96006 2.63999 6.09006 2.55499 6.26506C2.48999 15.4201 2.50999 24.5751 2.62499 33.7201C2.70999 33.8301 2.81499 33.9101 2.93999 33.9651C10.345 34.0101 17.75 34.0101 25.155 33.9651C25.33 33.8851 25.46 33.7551 25.54 33.5801C25.575 32.4401 25.59 31.3001 25.575 30.1551C26.3 30.1701 27.02 30.1551 27.74 30.1201C27.965 30.0201 28.09 29.8451 28.125 29.6001C28.15 28.4801 28.17 27.3651 28.195 26.2451C28.98 26.0601 29.735 25.7951 30.465 25.4401C33.64 23.4851 34.93 20.6551 34.345 16.9551ZM22.99 4.31006C23.93 5.21506 24.865 6.13506 25.785 7.07006C24.855 7.10506 23.925 7.11506 22.99 7.10506V4.31006ZM24.25 32.6701H3.84999V7.17506H6.36499C6.35499 14.7201 6.36499 22.2651 6.39999 29.8101C6.48499 29.9651 6.61499 30.0701 6.78499 30.1201C12.605 30.1551 18.425 30.1701 24.25 30.1551V32.6701ZM26.765 28.8301H7.68999V3.33006H21.665C21.63 4.94006 21.665 6.55006 21.77 8.15006C21.855 8.26006 21.96 8.34006 22.085 8.39506C23.645 8.43006 25.205 8.44006 26.765 8.43006V10.9451C23.345 11.1251 20.955 12.7751 19.605 15.9051C18.47 19.6701 19.455 22.7351 22.57 25.0901C23.85 25.9101 25.245 26.3201 26.765 26.3151V28.8301ZM30.045 24.1151C27.465 25.4501 25.02 25.2401 22.71 23.4851C20.765 21.6751 20.1 19.4751 20.72 16.8851C21.665 14.2051 23.54 12.6701 26.345 12.2751C29.65 12.3001 31.85 13.8601 32.945 16.9551C33.57 20.0001 32.605 22.3851 30.045 24.1151Z" fill="#44C5FF"/>
<path fill-rule="evenodd" clip-rule="evenodd" d="M19.045 6.96506C18.96 7.06006 18.86 7.12006 18.73 7.14006C16.03 7.18506 13.325 7.18506 10.625 7.14006C10.23 6.94006 10.1 6.62506 10.24 6.19506C10.335 6.06506 10.44 5.95006 10.555 5.84506C13.305 5.83506 16.05 5.84506 18.8 5.88006C19.215 6.16506 19.295 6.52506 19.045 6.96506Z" fill="#44C5FF"/>
<path fill-rule="evenodd" clip-rule="evenodd" d="M19.045 10.8051C18.945 10.8751 18.84 10.9301 18.73 10.9801C16.03 11.0251 13.325 11.0251 10.625 10.9801C10.205 10.7201 10.1 10.3601 10.31 9.90006C10.39 9.82006 10.475 9.75006 10.555 9.69006C13.305 9.67506 16.05 9.69006 18.8 9.72506C19.215 10.0101 19.295 10.3701 19.045 10.8051Z" fill="#44C5FF"/>
<path fill-rule="evenodd" clip-rule="evenodd" d="M14.89 14.8251C13.49 14.8701 12.095 14.8701 10.695 14.8251C10.21 14.6001 10.08 14.2401 10.31 13.7401C10.39 13.6601 10.475 13.5901 10.555 13.5301C12.045 13.5201 13.535 13.5301 15.025 13.5651C15.525 14.0501 15.48 14.4701 14.89 14.8251Z" fill="#44C5FF"/>
<path fill-rule="evenodd" clip-rule="evenodd" d="M30.36 17.0951C28.975 18.5051 27.565 19.8901 26.135 21.2501C25.87 21.3101 25.615 21.2851 25.365 21.1801C24.58 20.4401 23.85 19.6601 23.165 18.8401C23.135 18.1751 23.45 17.9051 24.11 18.0351C24.7 18.5601 25.27 19.1051 25.82 19.6801C27.06 18.4301 28.305 17.1951 29.56 15.9751C30.415 15.9351 30.685 16.3101 30.36 17.0951Z" fill="#44C5FF"/>
<path fill-rule="evenodd" clip-rule="evenodd" d="M15.06 18.4201C14.21 19.2701 13.36 20.1201 12.51 20.9701C12.265 21.0751 12.01 21.1001 11.745 21.0401C11.195 20.5851 10.695 20.0851 10.24 19.5401C10.125 18.7201 10.46 18.4251 11.255 18.6651C11.525 18.9351 11.79 19.2001 12.06 19.4701C12.72 18.8051 13.385 18.1401 14.05 17.4801C14.195 17.4201 14.335 17.3601 14.47 17.3051C15.125 17.4251 15.32 17.8001 15.06 18.4201Z" fill="#44C5FF"/>
<path fill-rule="evenodd" clip-rule="evenodd" d="M15.13 23.3801C14.285 24.3001 13.41 25.1951 12.51 26.0701C12.21 26.3051 11.905 26.3051 11.605 26.0701C11.175 25.6401 10.745 25.2101 10.31 24.7801C10.045 24.0151 10.31 23.6501 11.115 23.6951C11.45 23.9601 11.765 24.2501 12.06 24.5701C12.76 23.8551 13.47 23.1551 14.19 22.4701C14.91 22.3651 15.225 22.6701 15.13 23.3801Z" fill="#44C5FF"/>
</svg>
