<svg width="65" height="64" viewBox="0 0 65 64" fill="none" xmlns="http://www.w3.org/2000/svg">
<circle cx="32.5" cy="32" r="32" fill="#02213A"/>
<path fill-rule="evenodd" clip-rule="evenodd" d="M48.345 30.9551C47.47 27.7401 45.41 25.7851 42.16 25.0851C42.17 23.9451 42.16 22.8051 42.125 21.6601C42.095 21.5401 42.045 21.4251 41.985 21.3151C40.275 19.6001 38.565 17.8901 36.85 16.1801C36.76 16.1301 36.665 16.0851 36.57 16.0401C31.31 16.0051 26.045 15.9901 20.785 16.0051C20.625 16.1051 20.495 16.2451 20.4 16.4251C20.365 17.5651 20.355 18.7051 20.365 19.8451C19.225 19.8351 18.08 19.8451 16.94 19.8801C16.765 19.9601 16.64 20.0901 16.555 20.2651C16.49 29.4201 16.51 38.5751 16.625 47.7201C16.71 47.8301 16.815 47.9101 16.94 47.9651C24.345 48.0101 31.75 48.0101 39.155 47.9651C39.33 47.8851 39.46 47.7551 39.54 47.5801C39.575 46.4401 39.59 45.3001 39.575 44.1551C40.3 44.1701 41.02 44.1551 41.74 44.1201C41.965 44.0201 42.09 43.8451 42.125 43.6001C42.15 42.4801 42.17 41.3651 42.195 40.2451C42.98 40.0601 43.735 39.7951 44.465 39.4401C47.64 37.4851 48.93 34.6551 48.345 30.9551ZM36.99 18.3101C37.93 19.2151 38.865 20.1351 39.785 21.0701C38.855 21.1051 37.925 21.1151 36.99 21.1051V18.3101ZM38.25 46.6701H17.85V21.1751H20.365C20.355 28.7201 20.365 36.2651 20.4 43.8101C20.485 43.9651 20.615 44.0701 20.785 44.1201C26.605 44.1551 32.425 44.1701 38.25 44.1551V46.6701ZM40.765 42.8301H21.69V17.3301H35.665C35.63 18.9401 35.665 20.5501 35.77 22.1501C35.855 22.2601 35.96 22.3401 36.085 22.3951C37.645 22.4301 39.205 22.4401 40.765 22.4301V24.9451C37.345 25.1251 34.955 26.7751 33.605 29.9051C32.47 33.6701 33.455 36.7351 36.57 39.0901C37.85 39.9101 39.245 40.3201 40.765 40.3151V42.8301ZM44.045 38.1151C41.465 39.4501 39.02 39.2401 36.71 37.4851C34.765 35.6751 34.1 33.4751 34.72 30.8851C35.665 28.2051 37.54 26.6701 40.345 26.2751C43.65 26.3001 45.85 27.8601 46.945 30.9551C47.57 34.0001 46.605 36.3851 44.045 38.1151Z" fill="#44C5FF"/>
<path fill-rule="evenodd" clip-rule="evenodd" d="M33.045 20.9651C32.96 21.0601 32.86 21.1201 32.73 21.1401C30.03 21.1851 27.325 21.1851 24.625 21.1401C24.23 20.9401 24.1 20.6251 24.24 20.1951C24.335 20.0651 24.44 19.9501 24.555 19.8451C27.305 19.8351 30.05 19.8451 32.8 19.8801C33.215 20.1651 33.295 20.5251 33.045 20.9651Z" fill="#44C5FF"/>
<path fill-rule="evenodd" clip-rule="evenodd" d="M33.045 24.8051C32.945 24.8751 32.84 24.9301 32.73 24.9801C30.03 25.0251 27.325 25.0251 24.625 24.9801C24.205 24.7201 24.1 24.3601 24.31 23.9001C24.39 23.8201 24.475 23.7501 24.555 23.6901C27.305 23.6751 30.05 23.6901 32.8 23.7251C33.215 24.0101 33.295 24.3701 33.045 24.8051Z" fill="#44C5FF"/>
<path fill-rule="evenodd" clip-rule="evenodd" d="M28.89 28.8251C27.49 28.8701 26.095 28.8701 24.695 28.8251C24.21 28.6001 24.08 28.2401 24.31 27.7401C24.39 27.6601 24.475 27.5901 24.555 27.5301C26.045 27.5201 27.535 27.5301 29.025 27.5651C29.525 28.0501 29.48 28.4701 28.89 28.8251Z" fill="#44C5FF"/>
<path fill-rule="evenodd" clip-rule="evenodd" d="M44.36 31.0951C42.975 32.5051 41.565 33.8901 40.135 35.2501C39.87 35.3101 39.615 35.2851 39.365 35.1801C38.58 34.4401 37.85 33.6601 37.165 32.8401C37.135 32.1751 37.45 31.9051 38.11 32.0351C38.7 32.5601 39.27 33.1051 39.82 33.6801C41.06 32.4301 42.305 31.1951 43.56 29.9751C44.415 29.9351 44.685 30.3101 44.36 31.0951Z" fill="#44C5FF"/>
<path fill-rule="evenodd" clip-rule="evenodd" d="M29.06 32.4201C28.21 33.2701 27.36 34.1201 26.51 34.9701C26.265 35.0751 26.01 35.1001 25.745 35.0401C25.195 34.5851 24.695 34.0851 24.24 33.5401C24.125 32.7201 24.46 32.4251 25.255 32.6651C25.525 32.9351 25.79 33.2001 26.06 33.4701C26.72 32.8051 27.385 32.1401 28.05 31.4801C28.195 31.4201 28.335 31.3601 28.47 31.3051C29.125 31.4251 29.32 31.8001 29.06 32.4201Z" fill="#44C5FF"/>
<path fill-rule="evenodd" clip-rule="evenodd" d="M29.13 37.3801C28.285 38.3001 27.41 39.1951 26.51 40.0701C26.21 40.3051 25.905 40.3051 25.605 40.0701C25.175 39.6401 24.745 39.2101 24.31 38.7801C24.045 38.0151 24.31 37.6501 25.115 37.6951C25.45 37.9601 25.765 38.2501 26.06 38.5701C26.76 37.8551 27.47 37.1551 28.19 36.4701C28.91 36.3651 29.225 36.6701 29.13 37.3801Z" fill="#44C5FF"/>
</svg>
