<svg width="65" height="64" viewBox="0 0 65 64" fill="none" xmlns="http://www.w3.org/2000/svg">
<circle cx="32.5" cy="32" r="32" fill="#02213A"/>
<path fill-rule="evenodd" clip-rule="evenodd" d="M48.47 30.75C48.28 29.385 47.585 28.37 46.385 27.705C46.61 27.495 46.8 27.25 46.95 26.98C47.515 25.51 47.15 24.33 45.855 23.445C44.375 22.825 43.175 23.165 42.255 24.47C41.725 25.66 41.89 26.74 42.75 27.705C42.66 27.775 42.575 27.84 42.485 27.905C42.005 27.24 41.41 26.7 40.7 26.285C41.18 25.85 41.475 25.31 41.595 24.665C41.755 23.195 41.17 22.15 39.84 21.525C38.265 21.065 37.06 21.54 36.235 22.945C35.745 24.215 35.975 25.33 36.93 26.285C36.77 26.395 36.605 26.49 36.435 26.585C35.96 25.8 35.31 25.205 34.485 24.8C35.42 23.87 35.72 22.77 35.38 21.495C34.765 20.015 33.655 19.33 32.04 19.445C31.455 19.57 30.925 19.825 30.455 20.205C29.115 21.75 29.14 23.285 30.52 24.8C29.73 25.245 29.08 25.84 28.57 26.585C28.4 26.49 28.23 26.395 28.075 26.285C28.26 26.12 28.43 25.93 28.57 25.725C29.41 23.995 29.025 22.615 27.41 21.59C25.955 21.055 24.75 21.395 23.81 22.615C23.105 23.96 23.27 25.185 24.305 26.285C23.595 26.7 23 27.24 22.52 27.905C22.43 27.84 22.345 27.775 22.255 27.705C22.935 27.005 23.19 26.17 23.015 25.195C22.775 24.205 22.165 23.555 21.195 23.245C20.055 22.97 19.1 23.27 18.32 24.135C17.515 25.405 17.615 26.595 18.62 27.705C17.415 28.37 16.725 29.385 16.535 30.75C16.49 32.425 16.49 34.1 16.535 35.775C16.82 36.57 17.38 36.88 18.22 36.7C18.235 39.21 18.29 41.725 18.385 44.235C18.44 44.38 18.54 44.48 18.685 44.535C19.83 44.575 20.975 44.575 22.12 44.535C22.31 44.48 22.43 44.355 22.485 44.17C22.555 41.68 22.61 39.19 22.65 36.7C22.94 36.71 23.225 36.7 23.51 36.665C23.615 36.62 23.715 36.565 23.81 36.5C23.87 39.055 23.935 41.615 24.005 44.17C24.06 44.33 24.155 44.45 24.305 44.535C25.56 44.575 26.815 44.575 28.075 44.535C28.215 44.48 28.315 44.38 28.37 44.235C28.45 41.5 28.53 38.77 28.6 36.035C28.865 36.05 29.13 36.035 29.395 36.005C29.625 35.985 29.81 35.885 29.955 35.705C30.025 38.53 30.09 41.35 30.155 44.17C30.23 44.335 30.355 44.455 30.52 44.535C31.84 44.575 33.165 44.575 34.485 44.535C34.605 44.48 34.705 44.405 34.785 44.3C34.905 41.44 34.99 38.575 35.045 35.705C35.175 35.865 35.34 35.965 35.545 36.005C35.83 36.035 36.115 36.05 36.405 36.035C36.475 38.77 36.555 41.5 36.635 44.235C36.69 44.38 36.79 44.48 36.93 44.535C38.19 44.575 39.445 44.575 40.7 44.535C40.845 44.45 40.945 44.33 41 44.17C41.065 41.615 41.135 39.055 41.195 36.5C41.555 36.69 41.94 36.78 42.355 36.765C42.395 39.235 42.45 41.7 42.52 44.17C42.575 44.355 42.695 44.48 42.88 44.535C44.03 44.575 45.175 44.575 46.32 44.535C46.465 44.48 46.56 44.38 46.615 44.235C46.715 41.745 46.77 39.255 46.78 36.765C47.515 36.875 48.055 36.61 48.4 35.97C48.48 35.07 48.51 34.17 48.5 33.26C48.49 32.425 48.48 31.585 48.47 30.75ZM19.05 25.13C19.3 24.735 19.64 24.445 20.075 24.27C20.96 24.195 21.565 24.57 21.89 25.395C22 26.63 21.44 27.255 20.205 27.275C19.115 26.94 18.73 26.22 19.05 25.13ZM21.725 35.74C21.635 35.815 21.58 35.915 21.56 36.035C21.495 38.505 21.44 40.975 21.395 43.44H19.48C19.425 40.93 19.35 38.415 19.245 35.905C19.215 35.785 19.135 35.705 19.015 35.675C18.57 35.66 18.13 35.625 17.695 35.575C17.615 34.01 17.605 32.445 17.66 30.88C17.89 29.56 18.65 28.745 19.94 28.435C20.755 28.335 21.48 28.535 22.12 29.03C22.075 29.16 22.045 29.29 22.025 29.425C21.98 31.32 21.98 33.215 22.025 35.11C22.095 35.295 22.195 35.46 22.32 35.61C22.115 35.62 21.915 35.665 21.725 35.74ZM24.735 23.28C25 22.91 25.34 22.645 25.76 22.485C27.21 22.405 27.905 23.09 27.84 24.535C27.52 25.505 26.85 25.935 25.825 25.825C24.6 25.35 24.24 24.5 24.735 23.28ZM27.81 34.945C27.665 35 27.565 35.1 27.51 35.245C27.415 37.975 27.34 40.71 27.28 43.44H25.1C25.055 40.685 24.98 37.93 24.865 35.18C24.785 35.075 24.685 35 24.57 34.945C24.09 34.935 23.615 34.9 23.145 34.845C23.105 33.085 23.105 31.32 23.145 29.56C23.495 28.12 24.385 27.26 25.825 26.98C26.695 26.925 27.465 27.17 28.14 27.705C28.04 28.095 27.985 28.495 27.975 28.895C27.93 30.595 27.93 32.29 27.975 33.99C27.995 34.325 28.115 34.625 28.335 34.88C28.16 34.9 27.985 34.925 27.81 34.945ZM30.685 21.955C30.94 21.225 31.435 20.76 32.17 20.565C33.475 20.535 34.225 21.165 34.42 22.45C34.2 23.815 33.41 24.435 32.04 24.3C30.94 23.89 30.49 23.105 30.685 21.955ZM33.195 30.42C32.985 30.64 32.75 30.84 32.5 31.015C32.19 30.835 31.95 30.59 31.775 30.285C32.025 29.345 32.245 28.395 32.435 27.445C32.51 27.45 32.55 27.495 32.57 27.575C32.81 28.52 33.02 29.47 33.195 30.42ZM35.905 33.92C35.885 34.025 35.83 34.1 35.74 34.155C35.255 34.175 34.77 34.195 34.285 34.22C34.065 34.31 33.94 34.475 33.925 34.715C33.86 37.625 33.805 40.535 33.76 43.44H31.245C31.21 40.445 31.135 37.445 31.015 34.45C30.935 34.35 30.835 34.27 30.715 34.22C30.205 34.205 29.7 34.175 29.195 34.12C29.12 32.16 29.11 30.2 29.165 28.235C29.5 26.92 30.305 26.04 31.575 25.59C31.645 25.58 31.71 25.595 31.775 25.625C31.345 27.295 30.925 28.97 30.52 30.65C30.575 30.825 30.66 30.975 30.785 31.11C31.245 31.485 31.71 31.86 32.17 32.235C32.39 32.37 32.61 32.37 32.835 32.235C33.375 31.805 33.89 31.355 34.385 30.88C34.43 30.57 34.405 30.26 34.32 29.955C33.96 28.51 33.6 27.065 33.23 25.625C34.62 25.96 35.49 26.83 35.84 28.235C35.945 30.13 35.965 32.025 35.905 33.92ZM37.36 23.28C37.625 22.91 37.97 22.645 38.385 22.485C39.84 22.405 40.535 23.09 40.47 24.535C40.03 25.675 39.225 26.06 38.055 25.69C37.115 25.095 36.885 24.29 37.36 23.28ZM41.855 34.845C41.39 34.9 40.915 34.935 40.435 34.945C40.155 35.06 40.035 35.27 40.07 35.575C40.02 38.195 39.965 40.82 39.905 43.44H37.725C37.665 40.71 37.59 37.975 37.495 35.245C37.44 35.1 37.34 35 37.195 34.945C37.02 34.925 36.845 34.9 36.665 34.88C36.79 34.73 36.89 34.565 36.965 34.385C37.01 32.315 37.01 30.24 36.965 28.17C36.94 28.025 36.905 27.88 36.865 27.74C37.335 27.305 37.89 27.055 38.52 26.98C39.79 26.94 40.77 27.445 41.46 28.5C41.645 28.835 41.775 29.185 41.855 29.56C41.9 31.32 41.9 33.085 41.855 34.845ZM43.31 24.93C43.575 24.615 43.895 24.395 44.27 24.27C45.355 24.215 45.97 24.72 46.12 25.79C45.91 26.955 45.225 27.425 44.07 27.21C43.105 26.695 42.855 25.935 43.31 24.93ZM47.31 35.575C46.875 35.625 46.435 35.66 45.99 35.675C45.87 35.705 45.79 35.785 45.76 35.905C45.655 38.415 45.58 40.93 45.525 43.44H43.61C43.565 40.975 43.51 38.505 43.445 36.035C43.425 35.915 43.37 35.815 43.28 35.74C43.09 35.665 42.89 35.62 42.685 35.61C42.81 35.46 42.91 35.295 42.98 35.11C43.025 33.24 43.025 31.365 42.98 29.49C42.96 29.335 42.93 29.18 42.88 29.03C43.25 28.76 43.645 28.56 44.07 28.435C45.855 28.335 46.945 29.15 47.345 30.88C47.4 32.445 47.39 34.01 47.31 35.575Z" fill="#44C5FF"/>
</svg>
