<svg width="37" height="36" viewBox="0 0 37 36" fill="none" xmlns="http://www.w3.org/2000/svg">
<path fill-rule="evenodd" clip-rule="evenodd" d="M34.47 16.75C34.28 15.385 33.585 14.37 32.385 13.705C32.61 13.495 32.8 13.25 32.95 12.98C33.515 11.51 33.15 10.33 31.855 9.44502C30.375 8.82502 29.175 9.16502 28.255 10.47C27.725 11.66 27.89 12.74 28.75 13.705C28.66 13.775 28.575 13.84 28.485 13.905C28.005 13.24 27.41 12.7 26.7 12.285C27.18 11.85 27.475 11.31 27.595 10.665C27.755 9.19502 27.17 8.15002 25.84 7.52502C24.265 7.06502 23.06 7.54002 22.235 8.94502C21.745 10.215 21.975 11.33 22.93 12.285C22.77 12.395 22.605 12.49 22.435 12.585C21.96 11.8 21.31 11.205 20.485 10.8C21.42 9.87002 21.72 8.77002 21.38 7.49502C20.765 6.01502 19.655 5.33002 18.04 5.44502C17.455 5.57002 16.925 5.82502 16.455 6.20502C15.115 7.75002 15.14 9.28502 16.52 10.8C15.73 11.245 15.08 11.84 14.57 12.585C14.4 12.49 14.23 12.395 14.075 12.285C14.26 12.12 14.43 11.93 14.57 11.725C15.41 9.99502 15.025 8.61502 13.41 7.59002C11.955 7.05502 10.75 7.39502 9.80997 8.61502C9.10497 9.96002 9.26997 11.185 10.305 12.285C9.59497 12.7 8.99997 13.24 8.51997 13.905C8.42997 13.84 8.34497 13.775 8.25497 13.705C8.93497 13.005 9.18997 12.17 9.01497 11.195C8.77497 10.205 8.16497 9.55502 7.19497 9.24502C6.05497 8.97002 5.09997 9.27002 4.31997 10.135C3.51497 11.405 3.61497 12.595 4.61997 13.705C3.41497 14.37 2.72497 15.385 2.53497 16.75C2.48997 18.425 2.48997 20.1 2.53497 21.775C2.81997 22.57 3.37997 22.88 4.21997 22.7C4.23497 25.21 4.28997 27.725 4.38497 30.235C4.43997 30.38 4.53997 30.48 4.68497 30.535C5.82997 30.575 6.97497 30.575 8.11997 30.535C8.30997 30.48 8.42997 30.355 8.48497 30.17C8.55497 27.68 8.60997 25.19 8.64997 22.7C8.93997 22.71 9.22497 22.7 9.50997 22.665C9.61497 22.62 9.71497 22.565 9.80997 22.5C9.86997 25.055 9.93497 27.615 10.005 30.17C10.06 30.33 10.155 30.45 10.305 30.535C11.56 30.575 12.815 30.575 14.075 30.535C14.215 30.48 14.315 30.38 14.37 30.235C14.45 27.5 14.53 24.77 14.6 22.035C14.865 22.05 15.13 22.035 15.395 22.005C15.625 21.985 15.81 21.885 15.955 21.705C16.025 24.53 16.09 27.35 16.155 30.17C16.23 30.335 16.355 30.455 16.52 30.535C17.84 30.575 19.165 30.575 20.485 30.535C20.605 30.48 20.705 30.405 20.785 30.3C20.905 27.44 20.99 24.575 21.045 21.705C21.175 21.865 21.34 21.965 21.545 22.005C21.83 22.035 22.115 22.05 22.405 22.035C22.475 24.77 22.555 27.5 22.635 30.235C22.69 30.38 22.79 30.48 22.93 30.535C24.19 30.575 25.445 30.575 26.7 30.535C26.845 30.45 26.945 30.33 27 30.17C27.065 27.615 27.135 25.055 27.195 22.5C27.555 22.69 27.94 22.78 28.355 22.765C28.395 25.235 28.45 27.7 28.52 30.17C28.575 30.355 28.695 30.48 28.88 30.535C30.03 30.575 31.175 30.575 32.32 30.535C32.465 30.48 32.56 30.38 32.615 30.235C32.715 27.745 32.77 25.255 32.78 22.765C33.515 22.875 34.055 22.61 34.4 21.97C34.48 21.07 34.51 20.17 34.5 19.26C34.49 18.425 34.48 17.585 34.47 16.75ZM5.04997 11.13C5.29997 10.735 5.63997 10.445 6.07497 10.27C6.95997 10.195 7.56497 10.57 7.88997 11.395C7.99997 12.63 7.43997 13.255 6.20497 13.275C5.11497 12.94 4.72997 12.22 5.04997 11.13ZM7.72497 21.74C7.63497 21.815 7.57997 21.915 7.55997 22.035C7.49497 24.505 7.43997 26.975 7.39497 29.44H5.47997C5.42497 26.93 5.34997 24.415 5.24497 21.905C5.21497 21.785 5.13497 21.705 5.01497 21.675C4.56997 21.66 4.12997 21.625 3.69497 21.575C3.61497 20.01 3.60497 18.445 3.65997 16.88C3.88997 15.56 4.64997 14.745 5.93997 14.435C6.75497 14.335 7.47997 14.535 8.11997 15.03C8.07497 15.16 8.04497 15.29 8.02497 15.425C7.97997 17.32 7.97997 19.215 8.02497 21.11C8.09497 21.295 8.19497 21.46 8.31997 21.61C8.11497 21.62 7.91497 21.665 7.72497 21.74ZM10.735 9.28002C11 8.91002 11.34 8.64502 11.76 8.48502C13.21 8.40502 13.905 9.09002 13.84 10.535C13.52 11.505 12.85 11.935 11.825 11.825C10.6 11.35 10.24 10.5 10.735 9.28002ZM13.81 20.945C13.665 21 13.565 21.1 13.51 21.245C13.415 23.975 13.34 26.71 13.28 29.44H11.1C11.055 26.685 10.98 23.93 10.865 21.18C10.785 21.075 10.685 21 10.57 20.945C10.09 20.935 9.61497 20.9 9.14497 20.845C9.10497 19.085 9.10497 17.32 9.14497 15.56C9.49497 14.12 10.385 13.26 11.825 12.98C12.695 12.925 13.465 13.17 14.14 13.705C14.04 14.095 13.985 14.495 13.975 14.895C13.93 16.595 13.93 18.29 13.975 19.99C13.995 20.325 14.115 20.625 14.335 20.88C14.16 20.9 13.985 20.925 13.81 20.945ZM16.685 7.95502C16.94 7.22502 17.435 6.76002 18.17 6.56502C19.475 6.53502 20.225 7.16502 20.42 8.45002C20.2 9.81502 19.41 10.435 18.04 10.3C16.94 9.89002 16.49 9.10502 16.685 7.95502ZM19.195 16.42C18.985 16.64 18.75 16.84 18.5 17.015C18.19 16.835 17.95 16.59 17.775 16.285C18.025 15.345 18.245 14.395 18.435 13.445C18.51 13.45 18.55 13.495 18.57 13.575C18.81 14.52 19.02 15.47 19.195 16.42ZM21.905 19.92C21.885 20.025 21.83 20.1 21.74 20.155C21.255 20.175 20.77 20.195 20.285 20.22C20.065 20.31 19.94 20.475 19.925 20.715C19.86 23.625 19.805 26.535 19.76 29.44H17.245C17.21 26.445 17.135 23.445 17.015 20.45C16.935 20.35 16.835 20.27 16.715 20.22C16.205 20.205 15.7 20.175 15.195 20.12C15.12 18.16 15.11 16.2 15.165 14.235C15.5 12.92 16.305 12.04 17.575 11.59C17.645 11.58 17.71 11.595 17.775 11.625C17.345 13.295 16.925 14.97 16.52 16.65C16.575 16.825 16.66 16.975 16.785 17.11C17.245 17.485 17.71 17.86 18.17 18.235C18.39 18.37 18.61 18.37 18.835 18.235C19.375 17.805 19.89 17.355 20.385 16.88C20.43 16.57 20.405 16.26 20.32 15.955C19.96 14.51 19.6 13.065 19.23 11.625C20.62 11.96 21.49 12.83 21.84 14.235C21.945 16.13 21.965 18.025 21.905 19.92ZM23.36 9.28002C23.625 8.91002 23.97 8.64502 24.385 8.48502C25.84 8.40502 26.535 9.09002 26.47 10.535C26.03 11.675 25.225 12.06 24.055 11.69C23.115 11.095 22.885 10.29 23.36 9.28002ZM27.855 20.845C27.39 20.9 26.915 20.935 26.435 20.945C26.155 21.06 26.035 21.27 26.07 21.575C26.02 24.195 25.965 26.82 25.905 29.44H23.725C23.665 26.71 23.59 23.975 23.495 21.245C23.44 21.1 23.34 21 23.195 20.945C23.02 20.925 22.845 20.9 22.665 20.88C22.79 20.73 22.89 20.565 22.965 20.385C23.01 18.315 23.01 16.24 22.965 14.17C22.94 14.025 22.905 13.88 22.865 13.74C23.335 13.305 23.89 13.055 24.52 12.98C25.79 12.94 26.77 13.445 27.46 14.5C27.645 14.835 27.775 15.185 27.855 15.56C27.9 17.32 27.9 19.085 27.855 20.845ZM29.31 10.93C29.575 10.615 29.895 10.395 30.27 10.27C31.355 10.215 31.97 10.72 32.12 11.79C31.91 12.955 31.225 13.425 30.07 13.21C29.105 12.695 28.855 11.935 29.31 10.93ZM33.31 21.575C32.875 21.625 32.435 21.66 31.99 21.675C31.87 21.705 31.79 21.785 31.76 21.905C31.655 24.415 31.58 26.93 31.525 29.44H29.61C29.565 26.975 29.51 24.505 29.445 22.035C29.425 21.915 29.37 21.815 29.28 21.74C29.09 21.665 28.89 21.62 28.685 21.61C28.81 21.46 28.91 21.295 28.98 21.11C29.025 19.24 29.025 17.365 28.98 15.49C28.96 15.335 28.93 15.18 28.88 15.03C29.25 14.76 29.645 14.56 30.07 14.435C31.855 14.335 32.945 15.15 33.345 16.88C33.4 18.445 33.39 20.01 33.31 21.575Z" fill="#44C5FF"/>
</svg>
