<svg width="37" height="36" viewBox="0 0 37 36" fill="none" xmlns="http://www.w3.org/2000/svg">
<path fill-rule="evenodd" clip-rule="evenodd" d="M34.5 9.5V9C34.38 8.865 34.235 8.775 34.06 8.715C28.375 8.035 22.69 7.38 17 6.75C12.705 7.215 8.41 7.725 4.125 8.28C3.71 8.485 3.43 8.805 3.28 9.25C2.765 10.625 2.855 11.96 3.56 13.25C3.34 13.57 3.185 13.925 3.095 14.31C2.82 15.465 2.955 16.58 3.5 17.655C2.94 18.41 2.605 19.255 2.5 20.185V22.31C2.58 22.7 2.675 23.095 2.78 23.5C2.95 24.27 3.38 24.845 4.06 25.215C9.685 25.895 15.31 26.56 20.935 27.215C21.31 27.26 21.685 27.26 22.06 27.215C23.21 27.075 24.355 26.94 25.5 26.81C25.49 27.54 25.5 28.27 25.53 29C25.575 29.115 25.645 29.195 25.75 29.25H26.25C26.37 29.175 26.465 29.07 26.53 28.935C26.845 28.35 27.185 27.79 27.56 27.25C27.93 27.705 28.285 28.175 28.625 28.655C28.74 28.715 28.865 28.745 29 28.75C29.215 28.77 29.375 28.685 29.47 28.5C29.5 27.77 29.51 27.04 29.5 26.31C31.02 26.145 32.54 25.965 34.06 25.78C34.255 25.745 34.4 25.65 34.5 25.5V25C34.45 24.955 34.41 24.905 34.375 24.84C34.085 24.795 33.845 24.66 33.655 24.435C33.09 23.29 32.905 22.08 33.095 20.81C33.16 20.07 33.42 19.415 33.875 18.84C34.13 18.8 34.34 18.685 34.5 18.5V18C34.38 17.835 34.215 17.73 34 17.685C33.65 17.17 33.505 16.595 33.56 15.965C33.51 15.355 33.655 14.805 34 14.31C34.215 14.265 34.38 14.165 34.5 14V13.5C34.38 13.335 34.215 13.23 34 13.185C33.65 12.67 33.505 12.095 33.56 11.465C33.51 10.855 33.655 10.305 34 9.81C34.2 9.755 34.365 9.65 34.5 9.5ZM16.625 7.81C17.105 7.815 17.585 7.85 18.06 7.905C21.8 8.33 25.53 8.79 29.25 9.28C26.835 9.57 24.415 9.86 22 10.155C21.665 10.195 21.335 10.195 21 10.155C17.075 9.705 13.155 9.225 9.25 8.715C11.72 8.425 14.175 8.12 16.625 7.81ZM4.435 9.31C5.05 9.33 5.655 9.405 6.25 9.53C6.145 9.82 6.07 10.125 6.03 10.435C5.975 11.25 6.005 12.065 6.125 12.875C5.6 12.84 5.08 12.79 4.56 12.715C4.285 12.435 4.13 12.09 4.095 11.685C3.97 10.855 4.085 10.06 4.435 9.31ZM5.03 22.685C5.08 23.23 5.195 23.765 5.375 24.28C5.085 24.28 4.79 24.26 4.5 24.215C4.365 24.145 4.25 24.05 4.155 23.935C3.59 22.79 3.405 21.58 3.595 20.31C3.665 19.565 3.925 18.895 4.375 18.31C4.785 18.295 5.18 18.35 5.56 18.465C5.03 19.825 4.85 21.23 5.03 22.685ZM7.03 23C7.09 23.525 7.205 24.035 7.375 24.53C7.125 24.52 6.875 24.5 6.625 24.465C6.335 23.91 6.16 23.315 6.095 22.685C5.89 21.245 6.095 19.87 6.685 18.56C6.985 18.56 7.275 18.605 7.56 18.685C7.03 20.075 6.85 21.515 7.03 23ZM15.375 25.5C13.095 25.24 10.825 24.95 8.56 24.625C8.175 23.735 8.01 22.81 8.06 21.84C8.01 20.775 8.215 19.765 8.685 18.81C10.96 19.04 13.23 19.3 15.5 19.59C15.12 20.565 14.955 21.575 15 22.625C14.965 23.6 15.09 24.56 15.375 25.5ZM15.5 16.875C15.58 16.415 15.61 15.96 15.595 15.5C15.305 15.19 14.99 15.165 14.655 15.435C14.6 15.6 14.555 15.765 14.53 15.935C14.475 16.75 14.505 17.565 14.625 18.375C11.27 18.015 7.915 17.63 4.56 17.215C4.285 16.935 4.13 16.59 4.095 16.185C4.05 15.705 4.05 15.225 4.095 14.75C4.16 14.44 4.265 14.15 4.405 13.875C4.505 13.835 4.61 13.815 4.72 13.81C8.77 14.285 12.825 14.765 16.875 15.25C16.635 16.21 16.565 17.19 16.655 18.185C16.67 18.325 16.7 18.46 16.75 18.59C16.455 18.62 16.165 18.6 15.875 18.53C15.65 18 15.525 17.45 15.5 16.875ZM17.03 24.06C17.105 24.63 17.24 25.18 17.435 25.715C17.21 25.705 16.985 25.685 16.75 25.655C16.535 25.365 16.38 25.045 16.28 24.685C15.835 22.975 15.95 21.31 16.625 19.685C16.89 19.735 17.165 19.775 17.435 19.81C17.02 21.195 16.885 22.615 17.03 24.06ZM19.935 26C19.5 25.975 19.06 25.935 18.625 25.875C17.815 23.905 17.79 21.925 18.56 19.935C19.09 19.975 19.615 20.055 20.125 20.185C19.285 22.095 19.225 24.03 19.935 26ZM20.185 19.06C19.42 18.96 18.65 18.875 17.875 18.81C17.505 17.645 17.545 16.5 18 15.375C18.775 15.445 19.545 15.55 20.31 15.685C19.94 16.795 19.9 17.92 20.185 19.06ZM20.185 14.56C16.605 14.13 13.02 13.715 9.435 13.31C9.335 12.375 9.285 11.44 9.28 10.5C9.25 10.385 9.175 10.31 9.06 10.28C8.65 10.145 8.39 10.28 8.28 10.685C8.25 11.52 8.25 12.355 8.28 13.185C7.945 13.135 7.61 13.075 7.28 13C6.92 11.87 6.93 10.745 7.31 9.625C11.65 10.105 15.985 10.63 20.31 11.185C19.94 12.295 19.9 13.42 20.185 14.56ZM28.47 26.625C28.25 26.38 28.05 26.12 27.875 25.84C27.605 25.71 27.345 25.72 27.095 25.875C26.905 26.185 26.72 26.5 26.53 26.81C26.5 25.435 26.49 24.06 26.5 22.685C27.115 22.625 27.72 22.545 28.31 22.435H28.5C28.51 23.83 28.5 25.225 28.47 26.625ZM29.5 25.25V22.31C30.205 22.325 30.425 22.01 30.155 21.375C29.87 21.245 29.565 21.215 29.25 21.28C27.895 21.44 26.54 21.605 25.185 21.78C24.725 22.085 24.705 22.42 25.125 22.78C25.25 22.81 25.375 22.82 25.5 22.81V25.75C24.23 25.89 22.96 26.035 21.685 26.185C21.45 26.225 21.275 26.145 21.155 25.935C20.705 25.095 20.51 24.2 20.56 23.25C20.51 22.295 20.705 21.4 21.155 20.56C21.25 20.445 21.365 20.35 21.5 20.28C25.01 19.87 28.51 19.445 32 19H32.435C31.725 20.965 31.785 22.9 32.625 24.81C31.59 25 30.55 25.145 29.5 25.25ZM21.72 19.185C21.555 19.185 21.43 19.12 21.345 19C21.235 18.755 21.15 18.505 21.095 18.25C21.005 17.525 21.07 16.815 21.28 16.125C21.33 15.99 21.405 15.88 21.5 15.78C25.18 15.35 28.845 14.9 32.5 14.435H32.685C32.4 15.575 32.445 16.7 32.81 17.81C29.12 18.295 25.42 18.755 21.72 19.185ZM21.72 14.685C21.555 14.685 21.43 14.62 21.345 14.5C21.235 14.255 21.15 14.005 21.095 13.75C21.005 13.025 21.07 12.315 21.28 11.625C21.33 11.49 21.405 11.38 21.5 11.28C25.18 10.85 28.845 10.4 32.5 9.935H32.685C32.4 11.075 32.44 12.2 32.81 13.31C29.12 13.795 25.42 14.255 21.72 14.685Z" fill="#44C5FF"/>
</svg>
