<svg width="37" height="36" viewBox="0 0 37 36" fill="none" xmlns="http://www.w3.org/2000/svg">
<path fill-rule="evenodd" clip-rule="evenodd" d="M33.315 16.28C32.31 16.005 31.29 15.84 30.25 15.78C30.95 13.87 31.06 11.925 30.595 9.94C30.475 9.655 30.255 9.495 29.94 9.47C27.835 9.02 25.79 9.215 23.815 10.065C23.285 6.69 21.66 4.005 18.94 2H18.19C15.47 4.005 13.845 6.69 13.315 10.065C11.34 9.215 9.295 9.015 7.19 9.47C6.875 9.495 6.655 9.655 6.535 9.94C6.065 11.925 6.18 13.87 6.875 15.78C5.44 15.82 4.065 16.13 2.75 16.72C2.645 16.845 2.56 16.98 2.5 17.125V18.565C2.615 19.615 2.875 20.635 3.285 21.625C4.785 24.845 7.295 26.72 10.815 27.25V28.75C10.555 28.765 10.305 28.815 10.065 28.905C9.235 29.29 8.7 29.925 8.47 30.815C8.295 32.425 8.97 33.48 10.5 33.97C15.875 34.01 21.25 34.01 26.625 33.97C27.125 33.855 27.565 33.625 27.94 33.28C28.78 32.28 28.915 31.185 28.345 30C27.83 29.21 27.105 28.775 26.16 28.69C26.115 28.23 26.115 27.77 26.16 27.315C30.64 26.555 33.42 23.97 34.5 19.565V16.815C34.125 16.605 33.73 16.425 33.315 16.28ZM7.69 10.69C9.61 10.345 11.445 10.605 13.19 11.47C13.165 11.73 13.2 11.99 13.285 12.25C13.545 12.575 13.865 12.65 14.25 12.47C14.44 12.315 14.53 12.12 14.535 11.875C14.58 8.465 15.885 5.65 18.44 3.44C18.525 3.43 18.61 3.44 18.69 3.47C21.25 5.67 22.555 8.47 22.595 11.875C22.665 12.46 22.99 12.675 23.565 12.53C23.66 12.44 23.75 12.345 23.845 12.25C23.93 11.99 23.965 11.73 23.94 11.47C25.685 10.605 27.52 10.345 29.44 10.69C29.985 14.455 28.7 17.415 25.595 19.565C24.625 18.03 23.215 17.27 21.375 17.28C22.075 16.37 22.36 15.34 22.22 14.19C21.95 12.035 20.73 10.865 18.565 10.69C16.395 10.865 15.18 12.035 14.91 14.19C14.77 15.34 15.055 16.37 15.75 17.28C13.875 17.205 12.425 17.945 11.41 19.5C8.39 17.33 7.15 14.395 7.69 10.69ZM20.94 14.655C20.9 16.225 20.11 17.11 18.565 17.315C17.02 17.11 16.23 16.225 16.19 14.655C16.235 13.19 16.96 12.305 18.375 12C20.025 12.115 20.88 13 20.94 14.655ZM4.035 19.69C3.87 19.03 3.82 18.36 3.875 17.69C4.715 17.38 5.57 17.19 6.44 17.125C6.795 17.15 7.15 17.18 7.5 17.22C8.35 18.695 9.495 19.88 10.94 20.78C10.895 20.89 10.86 21.005 10.845 21.125C10.815 22.73 10.805 24.335 10.815 25.94C7.265 25.25 5.005 23.17 4.035 19.69ZM17.97 30.44C17.905 30.98 17.865 31.52 17.845 32.065C17.73 32.345 17.535 32.545 17.25 32.655C15.065 32.7 12.875 32.7 10.69 32.655C9.67 32.115 9.48 31.365 10.125 30.405C10.39 30.19 10.68 30.055 11 30C13.38 29.98 15.755 30 18.125 30.065C18.06 30.18 18.005 30.305 17.97 30.44ZM14.625 28.69C14.64 26.5 14.625 24.315 14.595 22.125C14.36 21.67 14.015 21.555 13.565 21.78C13.44 21.865 13.37 21.98 13.345 22.125C13.315 24.315 13.305 26.5 13.315 28.69H12.125C12.1 26.125 12.125 23.56 12.22 21C12.62 19.695 13.485 18.9 14.815 18.625C17.25 18.615 19.69 18.625 22.125 18.655C23.54 18.945 24.425 19.79 24.785 21.19C24.815 23.69 24.825 26.19 24.815 28.69H23.625C23.64 27.355 23.625 26.02 23.595 24.69C23.225 24.22 22.83 24.2 22.41 24.625C22.39 24.71 22.365 24.795 22.345 24.875C22.315 26.145 22.305 27.415 22.315 28.69H14.625ZM26.44 30.095C27.37 30.515 27.61 31.195 27.16 32.125C26.97 32.375 26.73 32.55 26.44 32.655C23.96 32.7 21.48 32.7 19 32.655C19.055 32.545 19.105 32.43 19.16 32.315C19.225 31.775 19.265 31.23 19.285 30.69C19.445 30.305 19.73 30.075 20.125 30C22.235 29.97 24.34 30.005 26.44 30.095ZM29.125 24.97C28.19 25.485 27.19 25.81 26.125 25.94C26.145 24.27 26.125 22.605 26.065 20.94C26.575 20.525 27.095 20.12 27.625 19.72C28.43 18.99 29.095 18.155 29.625 17.22C29.85 17.21 30.055 17.175 30.25 17.125C31.285 17.14 32.285 17.325 33.25 17.69C33.23 20.89 31.855 23.315 29.125 24.97Z" fill="#44C5FF"/>
</svg>
